<?xml version="1.0" encoding="utf-8"?>
<!-- Generator: Adobe Illustrator 19.2.1, SVG Export Plug-In . SVG Version: 6.00 Build 0)  -->
<svg version="1.1" id="Layer_1" xmlns="http://www.w3.org/2000/svg" xmlns:xlink="http://www.w3.org/1999/xlink" x="0px" y="0px"
	 viewBox="0 0 50 50" enable-background="new 0 0 50 50" xml:space="preserve">
<g opacity="0.98">
	<path fill="#FFFFFF" stroke="#000000" stroke-width="2" stroke-miterlimit="10" d="M39.4,6.7H10.6c-1.8,0-3.3,1.5-3.3,3.3v7.8h8
		v-1.3c0-1,0.8-1.8,1.8-1.8h15.9c1,0,1.8,0.8,1.8,1.8v1.3h8V10C42.7,8.2,41.2,6.7,39.4,6.7z"/>
	<path fill="#FFFFFF" stroke="#000000" stroke-width="2" stroke-miterlimit="10" d="M34.7,33.5c0,1-0.8,1.8-1.8,1.8H17.1
		c-1,0-1.8-0.8-1.8-1.8v-1.3h-8V40c0,1.8,1.5,3.3,3.3,3.3h28.8c1.8,0,3.3-1.5,3.3-3.3v-7.8h-8V33.5z"/>
	<rect x="7.3" y="21" fill="#FFFFFF" stroke="#000000" stroke-width="2" stroke-miterlimit="10" width="8" height="8"/>
	<rect x="34.7" y="21" fill="#FFFFFF" stroke="#000000" stroke-width="2" stroke-miterlimit="10" width="8" height="8"/>
</g>
</svg>
