<?xml version="1.0" encoding="utf-8"?>
<!-- Generator: Adobe Illustrator 19.2.1, SVG Export Plug-In . SVG Version: 6.00 Build 0)  -->
<svg version="1.1" id="Layer_1" xmlns="http://www.w3.org/2000/svg" xmlns:xlink="http://www.w3.org/1999/xlink" x="0px" y="0px"
	 viewBox="0 0 517.7 302" enable-background="new 0 0 517.7 302" xml:space="preserve">
<g>
	<g opacity="0.98">
		<path fill="#EC1944" d="M313.9,71.3H181.4c-8.3,0-15.1,6.8-15.1,15.1v35.6H203v-5.8c0-4.5,3.7-8.2,8.2-8.2h72.9
			c4.5,0,8.2,3.7,8.2,8.2v5.8H329V86.5C329,78.2,322.2,71.3,313.9,71.3z"/>
		<path fill="#EC1944" d="M292.3,185.7c0,4.5-3.7,8.2-8.2,8.2h-72.9c-4.5,0-8.2-3.7-8.2-8.2v-5.8h-36.8v35.6
			c0,8.3,6.8,15.1,15.1,15.1h132.5c8.3,0,15.1-6.8,15.1-15.1v-35.6h-36.8V185.7z"/>
		<rect x="166.3" y="132.6" fill="#EC1944" width="36.8" height="36.8"/>
		<rect x="292.3" y="132.6" fill="#EC1944" width="36.8" height="36.8"/>
	</g>
	<g>
		<path fill="#EC1944" d="M351.5,222.5c0-4.5-3.6-8.1-8.1-8.1c-4.5,0-8.1,3.6-8.1,8.1c0,4.5,3.6,8.1,8.1,8.1
			C347.8,230.7,351.5,227,351.5,222.5z M343.3,228.7c-3.4,0-6.1-2.8-6.1-6.1c0-3.4,2.8-6.1,6.1-6.1s6.1,2.8,6.1,6.1
			C349.5,225.9,346.7,228.7,343.3,228.7z"/>
		<path fill="#EC1944" d="M346.4,221.1L346.4,221.1c0-0.8-0.2-1.5-0.7-1.9c-0.5-0.5-1.2-0.8-2.2-0.8h-3v8h1.6v-2.6h1l1.5,2.6h1.9
			l-1.7-3C345.8,223,346.4,222.3,346.4,221.1z M344.7,221.1c0,0.7-0.5,1.2-1.3,1.2h-1.2v-2.4h1.2
			C344.2,219.9,344.7,220.3,344.7,221.1L344.7,221.1z"/>
	</g>
</g>
</svg>
