<?xml version="1.0" encoding="utf-8"?>
<!-- Generator: Adobe Illustrator 19.2.1, SVG Export Plug-In . SVG Version: 6.00 Build 0)  -->
<svg version="1.1" id="Layer_1" xmlns="http://www.w3.org/2000/svg" xmlns:xlink="http://www.w3.org/1999/xlink" x="0px" y="0px"
	 viewBox="0 0 517.7 302" enable-background="new 0 0 517.7 302" xml:space="preserve">
<g>
	<g>
		<path fill="#EC1944" d="M102.7,109.6H33.9c-4.3,0-7.9,3.5-7.9,7.9V136h19.1v-3c0-2.3,1.9-4.2,4.2-4.2h37.9c2.3,0,4.2,1.9,4.2,4.2
			v3h19.1v-18.5C110.5,113.2,107,109.6,102.7,109.6z"/>
		<path fill="#EC1944" d="M91.4,169c0,2.3-1.9,4.2-4.2,4.2H49.3c-2.3,0-4.2-1.9-4.2-4.2v-3H26v18.5c0,4.3,3.5,7.9,7.9,7.9h68.8
			c4.3,0,7.9-3.5,7.9-7.9V166H91.4V169z"/>
		<rect x="26" y="141.5" fill="#EC1944" width="19.1" height="19.1"/>
		<rect x="91.4" y="141.5" fill="#EC1944" width="19.1" height="19.1"/>
	</g>
	<path fill="#4E4540" d="M491.7,167c0-3-2.4-5.4-5.4-5.4c-3,0-5.4,2.4-5.4,5.4c0,3,2.4,5.4,5.4,5.4C489.3,172.4,491.7,170,491.7,167
		z M486.3,171.1c-2.2,0-4.1-1.8-4.1-4.1c0-2.2,1.8-4.1,4.1-4.1s4.1,1.8,4.1,4.1C490.4,169.3,488.6,171.1,486.3,171.1z"/>
	<path fill="#4E4540" d="M488.4,166.1L488.4,166.1c0-0.5-0.2-1-0.4-1.2c-0.3-0.3-0.8-0.5-1.4-0.5h-2v5.3h1.1v-1.7h0.7l1,1.7h1.2
		l-1.1-2C488,167.4,488.4,166.9,488.4,166.1z M487.3,166.1c0,0.5-0.3,0.8-0.9,0.8h-0.8v-1.6h0.8
		C486.9,165.3,487.3,165.6,487.3,166.1L487.3,166.1z"/>
	<path fill="#4E4540" d="M169.1,151.4v-0.7c0-12.7-8.3-21.9-19.7-21.9c-11.4,0-19.8,9.4-19.8,22v0.7c0,12.7,8.3,21.9,19.7,21.9
		C160.7,173.3,169.1,164,169.1,151.4z M138.8,151.2v-0.5c0-8,4.1-13.9,10.5-13.9c6.2,0,10.7,6,10.7,14v0.5c0,8-4.1,14-10.5,14
		C143.2,165.3,138.8,159.2,138.8,151.2z"/>
	<path fill="#4E4540" d="M212.7,151.5v-1.1c0-14.5-8.1-21.7-16.7-21.7c-6.2,0-9.9,3.6-12.5,7.7v-6.9h-9.1v55.1h9.1v-18.7
		c2.6,3.8,6.3,7.3,12.5,7.3C204.7,173.2,212.7,165.9,212.7,151.5z M183.3,151.4v-0.8c0-8.4,4.7-13.8,10.2-13.8c5.5,0,10,5.3,10,13.8
		v0.7c0,8.6-4.4,13.8-10,13.8C188,165.1,183.3,159.8,183.3,151.4z"/>
	<path fill="#4E4540" d="M252.3,166.7l-4.8-5.7c-2.8,2.8-5.8,4.5-9.9,4.5c-5.6,0-10-3.9-10.8-11.1h26.9c0.1-1.3,0.1-2.6,0.1-3.2
		c0-12.9-6.2-22.6-17.8-22.6c-10.5,0-18.3,9.2-18.3,22.1v0.6c0,13.4,8.6,21.9,19.6,21.9C243.6,173.3,248.4,170.8,252.3,166.7z
		 M235.9,136.4c5.3,0,8.4,4.9,8.9,11.7h-18.1C227.4,140.8,230.9,136.4,235.9,136.4z"/>
	<path fill="#4E4540" d="M280.6,128.7c-5.8,0-9.3,3.3-11.7,7.1v-6.3h-9.1v42.9h9.1v-26c0-5.9,3.3-9.5,8.1-9.5c4.9,0,7.7,3.3,7.7,9.3
		v26.1h9.1v-28.7C293.8,134.5,288.9,128.7,280.6,128.7z"/>
	<path fill="#4E4540" d="M330.7,160.2L330.7,160.2c0-6.8-5-9.9-11.7-12.9c-5-2.3-8.4-3.7-8.4-6.6v-0.2c0-2.3,2-4.2,5.4-4.2
		c3.4,0,7,1.6,10.2,3.8l3.9-6.7c-4-2.9-9.1-4.6-13.9-4.6c-8,0-14.2,4.9-14.2,12.5v0.2c0,7,5.3,10,11.7,12.7c5.1,2.2,8.4,3.6,8.4,6.6
		v0.1c0,2.7-2.2,4.7-6,4.7s-7.9-1.9-11.8-5l-4.3,6.6c4.9,4.1,10.8,6,15.9,6C324.3,173.2,330.7,168.6,330.7,160.2z"/>
	<path fill="#4E4540" d="M359,171.2v-7.5c-1.5,0.8-3.2,1.2-4.9,1.2c-2.9,0-4.6-1.4-4.6-4.7v-22.8h9.6v-7.9h-9.6v-11.6h-9.1v11.6
		h-4.7l1.5,7.9h3.2V162c0,8.3,4.8,11,11.1,11C354.4,173.1,356.9,172.3,359,171.2z"/>
	<path fill="#4E4540" d="M394,133.4c-2.8-2.8-7-4.4-12.6-4.4c-5.7,0-10,1.4-14.2,3.4l2.6,7.3c2.8-1.3,6.2-2.6,10.4-2.6
		c5.8,0,9.2,3,9.2,8.7v1.8c-2.9-1-5.8-1.7-9.9-1.7c-9.1,0-15.2,4.5-15.2,13.8v0.4c0,8.3,6,13.1,13.1,13.1c5.6,0,9.4-2.4,11.9-6.1
		v5.3h9v-26.6C398.3,140.4,396.9,136.2,394,133.4z M389.5,158c0,4.9-4,8.4-9.3,8.3c-4-0.1-7-2.5-7-6.8v-0.2c0-4.5,3.1-7.2,8.3-7.2
		c3.1,0,5.8,0.6,7.9,1.5V158z"/>
	<path fill="#4E4540" d="M437.2,166.8l-4.9-6.1c-2.5,2.5-5,4.4-8.7,4.4c-6.2,0-10.6-5.6-10.6-13.9v-0.4c0-8.1,4.4-13.8,10.4-13.8
		c3.9,0,6.4,1.9,8.7,4.3l5.1-6.7c-3.6-3.6-7.6-5.8-13.8-5.8c-11.2,0-19.6,9.2-19.6,22v0.8c0,12.8,8.1,21.8,19.3,21.8
		C429.5,173.3,433.8,170.6,437.2,166.8z"/>
	<g>
		<polygon fill="#4E4540" points="465.2,150.1 458.8,157 467.4,172.4 478,172.4 		"/>
		<polygon fill="#4E4540" points="466.7,129.5 452.1,148.4 452.1,114 442.9,114 442.9,172.4 452.1,172.4 452.1,160 477.6,129.5 		
			"/>
	</g>
</g>
</svg>
