<?xml version="1.0" encoding="utf-8"?>
<!-- Generator: Adobe Illustrator 20.0.0, SVG Export Plug-In . SVG Version: 6.00 Build 0)  -->
<svg version="1.1" id="Layer_1" xmlns="http://www.w3.org/2000/svg" xmlns:xlink="http://www.w3.org/1999/xlink" x="0px" y="0px"
	 viewBox="0 0 196 172" style="enable-background:new 0 0 196 172;" xml:space="preserve">
<style type="text/css">
	.st0{opacity:0.98;}
	.st1{fill:#EC1944;}
</style>
<g>
	<g class="st0">
		<path class="st1" d="M154.9,6.3H22.4c-8.3,0-15.1,6.8-15.1,15.1V57H44v-5.8c0-4.5,3.7-8.2,8.2-8.2h72.9c4.5,0,8.2,3.7,8.2,8.2V57
			H170V21.5C170,13.2,163.2,6.3,154.9,6.3z"/>
		<path class="st1" d="M133.3,120.7c0,4.5-3.7,8.2-8.2,8.2H52.2c-4.5,0-8.2-3.7-8.2-8.2v-5.8H7.2v35.6c0,8.3,6.8,15.1,15.1,15.1
			h132.5c8.3,0,15.1-6.8,15.1-15.1v-35.6h-36.8v5.8H133.3z"/>
		<rect x="7.3" y="67.6" class="st1" width="36.8" height="36.8"/>
		<rect x="133.3" y="67.6" class="st1" width="36.8" height="36.8"/>
	</g>
	<g>
		<path class="st1" d="M192.5,157.5c0-4.5-3.6-8.1-8.1-8.1s-8.1,3.6-8.1,8.1s3.6,8.1,8.1,8.1C188.8,165.7,192.5,162,192.5,157.5z
			 M184.3,163.7c-3.4,0-6.1-2.8-6.1-6.1c0-3.4,2.8-6.1,6.1-6.1s6.1,2.8,6.1,6.1C190.5,160.9,187.7,163.7,184.3,163.7z"/>
		<path class="st1" d="M187.4,156.1L187.4,156.1c0-0.8-0.2-1.5-0.7-1.9c-0.5-0.5-1.2-0.8-2.2-0.8h-3v8h1.6v-2.6h1l1.5,2.6h1.9
			l-1.7-3C186.8,158,187.4,157.3,187.4,156.1z M185.7,156.1c0,0.7-0.5,1.2-1.3,1.2h-1.2v-2.4h1.2
			C185.2,154.9,185.7,155.3,185.7,156.1L185.7,156.1z"/>
	</g>
</g>
</svg>
