<?xml version="1.0" encoding="utf-8"?>
<!-- Generator: Adobe Illustrator 19.2.1, SVG Export Plug-In . SVG Version: 6.00 Build 0)  -->
<svg version="1.1" id="Layer_1" xmlns="http://www.w3.org/2000/svg" xmlns:xlink="http://www.w3.org/1999/xlink" x="0px" y="0px"
	 viewBox="0 0 517.7 302" enable-background="new 0 0 517.7 302" xml:space="preserve">
<g>
	<path fill="#4E4540" d="M468.7,231.9c0-3.4-2.8-6.2-6.2-6.2c-3.4,0-6.2,2.8-6.2,6.2s2.8,6.2,6.2,6.2
		C465.9,238.1,468.7,235.3,468.7,231.9z M462.5,236.6c-2.6,0-4.7-2.1-4.7-4.7c0-2.6,2.1-4.7,4.7-4.7s4.7,2.1,4.7,4.7
		S465.1,236.6,462.5,236.6z"/>
	<path fill="#4E4540" d="M464.8,230.7L464.8,230.7c0-0.6-0.2-1.1-0.5-1.4c-0.4-0.4-0.9-0.6-1.7-0.6h-2.3v6.1h1.3v-2h0.8l1.1,2h1.4
		l-1.3-2.3C464.4,232.2,464.8,231.7,464.8,230.7z M463.5,230.8c0,0.5-0.3,0.9-1,0.9h-0.9v-1.8h0.9
		C463.2,229.8,463.5,230.2,463.5,230.8L463.5,230.8z"/>
	<path fill="#4E4540" d="M94.8,213.7v-0.8c0-14.7-9.7-25.4-22.8-25.4c-13.2,0-23,10.9-23,25.5v0.8c0,14.7,9.7,25.3,22.8,25.3
		C85,239.1,94.8,228.3,94.8,213.7z M59.6,213.5v-0.6c0-9.3,4.8-16.1,12.2-16.1c7.2,0,12.4,6.9,12.4,16.2v0.6
		c0,9.3-4.8,16.2-12.2,16.2C64.8,229.8,59.6,222.8,59.6,213.5z"/>
	<path fill="#4E4540" d="M145.3,213.9v-1.3c0-16.8-9.4-25.1-19.3-25.1c-7.1,0-11.4,4.1-14.5,8.9v-8h-10.6v63.9h10.6v-21.7
		c3,4.4,7.3,8.4,14.5,8.4C136,239,145.3,230.6,145.3,213.9z M111.2,213.7v-0.9c0-9.8,5.4-16,11.8-16c6.4,0,11.5,6.1,11.5,16v0.8
		c0,9.9-5.1,16-11.5,16C116.7,229.6,111.2,223.5,111.2,213.7z"/>
	<path fill="#4E4540" d="M191.2,231.4l-5.5-6.6c-3.3,3.2-6.8,5.3-11.4,5.3c-6.5,0-11.6-4.5-12.6-12.9h31.2c0.1-1.5,0.1-3,0.1-3.7
		c0-14.9-7.1-26.2-20.6-26.2c-12.2,0-21.2,10.7-21.2,25.6v0.7c0,15.6,9.9,25.3,22.7,25.3C181.2,239.1,186.7,236.2,191.2,231.4z
		 M172.3,196.3c6.2,0,9.8,5.7,10.3,13.6h-21C162.3,201.5,166.4,196.3,172.3,196.3z"/>
	<path fill="#4E4540" d="M224,187.4c-6.8,0-10.8,3.8-13.6,8.3v-7.3h-10.6v49.7h10.6V208c0-6.9,3.8-11,9.4-11c5.6,0,8.9,3.8,8.9,10.8
		v30.3h10.6v-33.3C239.3,194.2,233.6,187.4,224,187.4z"/>
	<path fill="#4E4540" d="M282.1,223.9L282.1,223.9c0-7.9-5.8-11.4-13.5-14.9c-5.8-2.6-9.8-4.3-9.8-7.6v-0.2c0-2.7,2.3-4.9,6.3-4.9
		c3.9,0,8.1,1.9,11.8,4.4l4.5-7.8c-4.7-3.4-10.6-5.3-16.1-5.3c-9.3,0-16.4,5.6-16.4,14.5v0.2c0,8.2,6.2,11.5,13.6,14.7
		c5.9,2.5,9.8,4.1,9.8,7.7v0.1c0,3.1-2.5,5.4-6.9,5.4s-9.2-2.2-13.7-5.8l-5,7.6c5.7,4.8,12.6,6.9,18.5,6.9
		C274.7,239,282.1,233.7,282.1,223.9z"/>
	<path fill="#4E4540" d="M314.9,236.7V228c-1.8,0.9-3.7,1.4-5.7,1.4c-3.4,0-5.3-1.6-5.3-5.4v-26.5H315v-9.1h-11.2V175h-10.6v13.4
		h-5.4l1.7,9.1h3.7v28.6c0,9.7,5.5,12.8,12.9,12.8C309.7,238.8,312.5,238,314.9,236.7z"/>
	<path fill="#4E4540" d="M355.5,192.9c-3.2-3.3-8.2-5.1-14.6-5.1c-6.7,0-11.6,1.6-16.4,3.9l3,8.4c3.3-1.5,7.2-3,12-3
		c6.8,0,10.7,3.5,10.7,10.1v2.1c-3.4-1.1-6.8-2-11.4-2c-10.5,0-17.6,5.3-17.6,16v0.5c0,9.7,6.9,15.2,15.2,15.2
		c6.5,0,10.9-2.8,13.8-7v6.1h10.4v-30.9C360.5,201,358.8,196.2,355.5,192.9z M350.3,221.4c0,5.6-4.7,9.8-10.8,9.7
		c-4.6-0.1-8.1-2.9-8.1-7.9V223c0-5.3,3.6-8.4,9.7-8.4c3.6,0,6.8,0.8,9.2,1.8L350.3,221.4L350.3,221.4z"/>
	<path fill="#4E4540" d="M405.6,231.6l-5.7-7c-2.9,2.9-5.8,5.1-10.1,5.1c-7.2,0-12.3-6.5-12.3-16.1V213c0-9.4,5.1-16,12-16
		c4.5,0,7.4,2.3,10,5l5.9-7.8c-4.1-4.1-8.8-6.8-16-6.8c-13,0-22.7,10.7-22.7,25.5v0.9c0,14.8,9.4,25.2,22.3,25.2
		C396.7,239.1,401.6,236,405.6,231.6z"/>
	<g>
		<polygon fill="#4E4540" points="438,212.3 430.6,220.3 440.6,238.1 452.9,238.1 		"/>
		<polygon fill="#4E4540" points="439.8,188.4 422.8,210.2 422.8,170.3 412.2,170.3 412.2,238.1 422.8,238.1 422.8,223.7 
			452.4,188.4 		"/>
	</g>
	<g opacity="0.98">
		<g>
			<path fill="#4E4540" d="M294.2,49.7h-84.6c-5.3,0-9.7,4.3-9.7,9.7v22.8h23.5v-3.7c0-2.9,2.3-5.2,5.2-5.2h46.6
				c2.9,0,5.2,2.3,5.2,5.2v3.7h23.5V59.4C303.9,54.1,299.5,49.7,294.2,49.7z"/>
			<path fill="#4E4540" d="M280.4,122.8c0,2.9-2.3,5.2-5.2,5.2h-46.6c-2.9,0-5.2-2.3-5.2-5.2v-3.7h-23.5v22.8c0,5.3,4.3,9.7,9.7,9.7
				h84.6c5.3,0,9.7-4.3,9.7-9.7v-22.8h-23.5V122.8z"/>
			<rect x="199.9" y="88.9" fill="#4E4540" width="23.5" height="23.5"/>
			<rect x="280.4" y="88.9" fill="#4E4540" width="23.5" height="23.5"/>
		</g>
	</g>
</g>
</svg>
