<?xml version="1.0" encoding="utf-8"?>
<!-- Generator: Adobe Illustrator 20.1.0, SVG Export Plug-In . SVG Version: 6.00 Build 0)  -->
<svg version="1.1" id="Layer_1" xmlns="http://www.w3.org/2000/svg" xmlns:xlink="http://www.w3.org/1999/xlink" x="0px" y="0px"
	 viewBox="0 0 175 150" enable-background="new 0 0 175 150" xml:space="preserve">
<g>
	<path fill="#ED1944" d="M8.783,51.104v26.947c0,12.328,8.517,20.845,19.556,20.845h0.112c11.039,0,19.556-8.517,19.556-20.845
		V51.104H8.783z M18.736,70.186h4.363v4.363h-4.363V70.186z M38.055,80.026c0,0.987-0.808,1.795-1.795,1.795H20.531
		c-0.987,0-1.795-0.808-1.795-1.795v-4.23h4.363v0.691c0,0.536,0.435,0.971,0.971,0.971h8.652c0.536,0,0.971-0.435,0.971-0.971
		v-0.691h4.363V80.026z M33.594,74.548v-4.363h4.363v4.363H33.594z M38.055,68.938h-4.363v-0.691c0-0.536-0.435-0.971-0.971-0.971
		h-8.652c-0.536,0-0.971,0.435-0.971,0.971v0.691h-4.363v-4.23c0-0.987,0.808-1.795,1.795-1.795H36.26
		c0.987,0,1.795,0.808,1.795,1.795V68.938z"/>
	<g>
		<g>
			<g>
				<path fill="#9A9A9A" d="M58.187,84.671c0-0.387,0.072-0.875,0.172-1.276l1.176-4.689h-1.319l0.272-1.076h4.43l-0.272,1.076
					h-1.305l-1.19,4.774c-0.086,0.373-0.129,0.703-0.129,1.018c0,1.09,0.846,1.62,2.007,1.62c0.645,0,1.233-0.2,1.649-0.616
					c0.373-0.373,0.645-0.932,0.832-1.649l1.276-5.147h-1.348l0.272-1.076h3.771l-0.258,1.076h-1.262l-1.376,5.52
					c-0.186,0.76-0.473,1.477-1.075,2.079c-0.588,0.588-1.477,1.004-2.782,1.004C59.392,87.309,58.187,86.148,58.187,84.671z"/>
				<path fill="#9A9A9A" d="M70.319,87.208c-1.348,0-2.738-0.573-2.738-1.663c0-0.56,0.373-1.033,0.946-1.033
					c0.559,0,0.846,0.402,0.846,0.789c0,0.344-0.158,0.631-0.344,0.789c0.244,0.215,0.717,0.373,1.233,0.373
					c0.731,0,1.19-0.359,1.19-1.018c0-0.545-0.588-0.817-1.319-1.147c-0.846-0.387-1.678-0.803-1.678-1.778
					c0-1.505,1.448-2.208,2.696-2.208c1.462,0,2.466,0.646,2.466,1.506c0,0.559-0.373,1.032-0.918,1.032
					c-0.53,0-0.846-0.373-0.846-0.789c0-0.287,0.143-0.588,0.344-0.76c-0.143-0.129-0.559-0.272-0.99-0.272
					c-0.688,0-1.19,0.359-1.19,0.961c0,0.573,0.602,0.846,1.434,1.233c0.76,0.344,1.577,0.745,1.577,1.735
					C73.029,86.449,71.738,87.208,70.319,87.208z"/>
				<path fill="#9A9A9A" d="M76.227,84.37c-0.014,0.115-0.014,0.23-0.014,0.33c0,1.19,0.617,1.563,1.334,1.563
					c0.703,0,1.405-0.473,2.007-1.319l0.602,0.43c-0.731,1.047-1.62,1.835-3.14,1.835c-1.477,0-2.509-1.032-2.509-2.609
					c0-2.208,1.907-4.288,4.158-4.288c1.233,0,1.921,0.617,1.921,1.492C80.585,83.093,79.238,84.198,76.227,84.37z M76.356,83.696
					c1.993-0.215,2.724-0.99,2.724-1.878c0-0.402-0.229-0.717-0.66-0.717C77.417,81.1,76.657,82.463,76.356,83.696z"/>
				<path fill="#9A9A9A" d="M83.225,82.42c0.215-0.817,0.172-1.047-0.086-1.047c-0.33,0-0.703,0.616-1.118,1.505l-0.674-0.287
					c0.616-1.434,1.333-2.265,2.294-2.265c0.616,0,1.047,0.445,1.047,1.334c0,0.416-0.086,0.918-0.287,1.549l0.115,0.043
					c0.831-1.893,1.52-2.94,2.523-2.94c0.603,0,1.047,0.416,1.047,1.09c0,0.717-0.459,1.29-1.032,1.29
					c-0.502,0-0.889-0.329-0.86-0.932c-0.416,0.172-1.448,1.391-2.48,5.305h-1.721L83.225,82.42z"/>
				<path fill="#9A9A9A" d="M99.185,83.682l0.086-0.344h-1.692l0.273-1.075h4.646l-0.258,1.075h-1.175l-0.989,3.828h-1.061
					l-0.115-1.262c-0.573,0.817-1.462,1.391-2.624,1.391c-2.208,0-3.441-1.72-3.441-3.943c0-2.939,2.122-5.95,5.276-5.95
					c1.19,0,2.079,0.43,2.567,1.161l0.588-1.118h1.104l-0.903,3.671h-1.147c-0.158-2.05-1.047-2.667-2.15-2.667
					c-2.538,0-3.413,3.441-3.413,5.004c0,2.036,0.975,2.71,1.936,2.71C97.951,86.162,98.826,85.101,99.185,83.682z"/>
				<path fill="#9A9A9A" d="M105.007,82.42c0.215-0.817,0.172-1.047-0.086-1.047c-0.33,0-0.702,0.616-1.118,1.505l-0.674-0.287
					c0.617-1.434,1.334-2.265,2.294-2.265c0.617,0,1.047,0.445,1.047,1.334c0,0.416-0.086,0.918-0.287,1.549l0.115,0.043
					c0.832-1.893,1.52-2.94,2.524-2.94c0.602,0,1.047,0.416,1.047,1.09c0,0.717-0.459,1.29-1.032,1.29
					c-0.502,0-0.889-0.329-0.86-0.932c-0.416,0.172-1.448,1.391-2.481,5.305h-1.72L105.007,82.42z"/>
				<path fill="#9A9A9A" d="M116.995,83.079c0,2.237-1.792,4.129-3.785,4.129c-1.649,0-2.724-1.161-2.724-2.782
					c0-2.237,1.792-4.115,3.785-4.115C115.92,80.312,116.995,81.459,116.995,83.079z M114.285,81.1c-1.334,0-2.093,2.61-2.093,4.001
					c0,0.918,0.387,1.305,1.004,1.305c1.334,0,2.093-2.61,2.093-4.001C115.289,81.488,114.902,81.1,114.285,81.1z"/>
				<path fill="#9A9A9A" d="M122.874,85.861c0-0.358,0.086-0.903,0.316-1.634l-0.1-0.043c-0.946,2.079-1.95,3.025-2.983,3.025
					c-0.788,0-1.305-0.616-1.305-1.505c0-1.205,1.018-3.112,1.018-3.929c0-0.201-0.086-0.301-0.215-0.301
					c-0.301,0-0.545,0.315-1.061,1.391l-0.674-0.287c0.588-1.419,1.348-2.265,2.337-2.265c0.76,0,1.205,0.473,1.205,1.305
					c0,1.334-0.946,2.853-0.946,3.771c0,0.402,0.158,0.56,0.402,0.56c0.645,0,1.835-1.061,3.011-5.535h1.721l-1.175,4.445
					c-0.115,0.387-0.158,0.631-0.158,0.817c0,0.244,0.129,0.373,0.33,0.373c0.33,0,0.631-0.487,0.961-1.448l0.689,0.215
					c-0.56,1.749-1.334,2.394-2.151,2.394C123.347,87.208,122.874,86.793,122.874,85.861z"/>
				<path fill="#9A9A9A" d="M129.055,81.502c-0.33,0-0.588,0.416-1.047,1.376l-0.674-0.287c0.689-1.577,1.362-2.265,2.266-2.265
					c0.646,0,1.076,0.473,1.076,1.291c0,0.1-0.014,0.23-0.029,0.359l0.115,0.043c0.545-1.132,1.419-1.706,2.208-1.706
					c1.204,0,1.893,0.989,1.893,2.323c0,2.308-1.592,4.445-3.356,4.445c-0.76,0-1.362-0.387-1.634-0.961l-0.573,2.137h1.348
					l-0.287,1.061h-3.972l0.287-1.061h0.975l1.52-5.678C129.385,81.774,129.313,81.502,129.055,81.502z M130.216,85.001
					c0,0.702,0.301,1.19,0.932,1.19c1.276,0,1.993-2.409,1.993-3.542c0-0.803-0.258-1.218-0.789-1.218
					C131.206,81.43,130.216,83.739,130.216,85.001z"/>
			</g>
		</g>
		<g>
			<g>
				<path fill="#1C1C1C" d="M62.018,60.695h3.233l4.388,12.506h-3.357l-0.728-2.238h-3.908l-0.711,2.238h-3.286L62.018,60.695z
					 M64.754,68.405l-1.155-3.642l-1.155,3.642H64.754z"/>
				<path fill="#1C1C1C" d="M72.089,68.28v-7.514h3.215v7.549c0,1.492,0.728,2.203,1.83,2.203c1.119,0,1.83-0.675,1.83-2.149v-7.603
					h3.233v7.461c0,3.606-2.043,5.187-5.08,5.187C74.079,73.414,72.089,71.815,72.089,68.28z"/>
				<path fill="#1C1C1C" d="M84.986,71.549l1.705-2.327c1.012,0.835,2.167,1.403,3.375,1.403c0.853,0,1.297-0.373,1.297-0.906
					v-0.018c0-0.497-0.373-0.8-1.83-1.315c-2.345-0.799-3.997-1.652-3.997-3.908v-0.053c0-2.256,1.723-3.837,4.441-3.837
					c1.67,0,3.145,0.462,4.441,1.51l-1.617,2.38c-0.853-0.657-1.883-1.137-2.895-1.137c-0.729,0-1.137,0.355-1.137,0.817v0.018
					c0,0.551,0.391,0.835,1.971,1.421c2.362,0.764,3.837,1.723,3.837,3.837v0.035c0,2.416-1.865,3.909-4.529,3.909
					C88.201,73.379,86.443,72.81,84.986,71.549z"/>
				<path fill="#1C1C1C" d="M100.085,63.643h-3.073v-2.877h9.343v2.877h-3.073v9.557h-3.197V63.643z"/>
				<path fill="#1C1C1C" d="M109.605,60.766h4.885c1.67,0,2.931,0.444,3.73,1.261c0.693,0.693,1.084,1.652,1.084,2.913v0.089
					c0,1.847-0.906,3.002-2.221,3.66l2.558,4.512h-3.606l-2.114-3.855h-1.137v3.855h-3.18V60.766z M114.366,66.806
					c1.083,0,1.723-0.622,1.723-1.617v-0.035c0-1.066-0.675-1.599-1.741-1.599h-1.563v3.251H114.366z"/>
				<path fill="#1C1C1C" d="M126.054,60.695h3.233l4.388,12.506h-3.358l-0.728-2.238h-3.908l-0.711,2.238h-3.286L126.054,60.695z
					 M128.79,68.405l-1.155-3.642l-1.155,3.642H128.79z"/>
				<path fill="#1C1C1C" d="M136.623,60.766h3.197v9.557h4.885v2.878h-8.083V60.766z"/>
				<path fill="#1C1C1C" d="M147.992,60.766h3.197v12.435h-3.197V60.766z"/>
				<path fill="#1C1C1C" d="M158.596,60.695h3.233l4.388,12.506h-3.357l-0.729-2.238h-3.908l-0.711,2.238h-3.286L158.596,60.695z
					 M161.332,68.405l-1.155-3.642l-1.155,3.642H161.332z"/>
			</g>
		</g>
	</g>
</g>
</svg>
