<?xml version="1.0" encoding="utf-8"?>
<!-- Generator: Adobe Illustrator 20.1.0, SVG Export Plug-In . SVG Version: 6.00 Build 0)  -->
<svg version="1.1" id="Layer_1" xmlns="http://www.w3.org/2000/svg" xmlns:xlink="http://www.w3.org/1999/xlink" x="0px" y="0px"
	 viewBox="0 0 175 150" enable-background="new 0 0 175 150" xml:space="preserve">
<g>
	<g>
		<g>
			<path fill="#9A9A9A" d="M40.855,124.671c0-0.498,0.092-1.124,0.221-1.64l1.511-6.027h-1.696l0.35-1.382h5.695l-0.35,1.382h-1.677
				l-1.53,6.137c-0.111,0.48-0.166,0.903-0.166,1.309c0,1.401,1.087,2.083,2.58,2.083c0.83,0,1.585-0.258,2.12-0.792
				c0.479-0.48,0.829-1.198,1.069-2.12l1.64-6.617H48.89l0.35-1.382h4.847l-0.332,1.382h-1.622l-1.769,7.096
				c-0.24,0.976-0.608,1.898-1.382,2.672c-0.756,0.756-1.898,1.291-3.576,1.291C42.403,128.062,40.855,126.569,40.855,124.671z"/>
			<path fill="#9A9A9A" d="M56.819,127.933c-1.732,0-3.52-0.737-3.52-2.138c0-0.719,0.479-1.327,1.217-1.327
				c0.719,0,1.087,0.516,1.087,1.013c0,0.443-0.203,0.811-0.443,1.013c0.313,0.276,0.922,0.48,1.585,0.48
				c0.94,0,1.53-0.461,1.53-1.309c0-0.7-0.756-1.05-1.696-1.474c-1.087-0.498-2.156-1.032-2.156-2.286
				c0-1.935,1.861-2.838,3.465-2.838c1.88,0,3.17,0.829,3.17,1.935c0,0.719-0.479,1.328-1.18,1.328c-0.682,0-1.087-0.48-1.087-1.014
				c0-0.369,0.185-0.755,0.443-0.976c-0.184-0.166-0.719-0.35-1.272-0.35c-0.885,0-1.53,0.461-1.53,1.235
				c0,0.737,0.774,1.087,1.843,1.585c0.977,0.443,2.027,0.958,2.027,2.23C60.302,126.957,58.644,127.933,56.819,127.933z"/>
			<path fill="#9A9A9A" d="M64.414,124.284c-0.019,0.147-0.019,0.295-0.019,0.424c0,1.53,0.793,2.009,1.714,2.009
				c0.903,0,1.806-0.608,2.58-1.695l0.774,0.553c-0.94,1.346-2.082,2.359-4.036,2.359c-1.898,0-3.225-1.327-3.225-3.354
				c0-2.838,2.451-5.51,5.345-5.51c1.585,0,2.47,0.792,2.47,1.917C70.017,122.643,68.285,124.063,64.414,124.284z M64.58,123.418
				c2.562-0.277,3.502-1.272,3.502-2.415c0-0.516-0.295-0.921-0.848-0.921C65.944,120.082,64.967,121.833,64.58,123.418z"/>
			<path fill="#9A9A9A" d="M73.411,121.777c0.276-1.05,0.221-1.345-0.111-1.345c-0.424,0-0.902,0.792-1.437,1.935l-0.866-0.369
				c0.792-1.843,1.713-2.912,2.949-2.912c0.792,0,1.345,0.572,1.345,1.714c0,0.535-0.11,1.18-0.369,1.991l0.147,0.055
				c1.069-2.433,1.954-3.778,3.244-3.778c0.774,0,1.346,0.534,1.346,1.401c0,0.921-0.59,1.658-1.328,1.658
				c-0.645,0-1.143-0.424-1.106-1.198c-0.535,0.221-1.861,1.787-3.188,6.819h-2.212L73.411,121.777z"/>
			<path fill="#9A9A9A" d="M91.789,123.399l0.111-0.443h-2.175l0.35-1.382h5.972l-0.332,1.382h-1.512l-1.272,4.921h-1.364
				l-0.147-1.622c-0.737,1.05-1.88,1.787-3.373,1.787c-2.839,0-4.424-2.211-4.424-5.068c0-3.778,2.728-7.649,6.783-7.649
				c1.529,0,2.673,0.553,3.299,1.493l0.756-1.438h1.419L94.72,120.1h-1.475c-0.202-2.636-1.345-3.428-2.765-3.428
				c-3.262,0-4.386,4.423-4.386,6.432c0,2.617,1.253,3.483,2.488,3.483C90.204,126.587,91.328,125.223,91.789,123.399z"/>
			<path fill="#9A9A9A" d="M99.276,121.777c0.276-1.05,0.221-1.345-0.111-1.345c-0.424,0-0.902,0.792-1.437,1.935l-0.866-0.369
				c0.792-1.843,1.713-2.912,2.949-2.912c0.792,0,1.345,0.572,1.345,1.714c0,0.535-0.11,1.18-0.369,1.991l0.147,0.055
				c1.069-2.433,1.954-3.778,3.244-3.778c0.774,0,1.346,0.534,1.346,1.401c0,0.921-0.59,1.658-1.328,1.658
				c-0.645,0-1.143-0.424-1.106-1.198c-0.535,0.221-1.861,1.787-3.188,6.819h-2.212L99.276,121.777z"/>
			<path fill="#9A9A9A" d="M114.686,122.625c0,2.875-2.304,5.308-4.866,5.308c-2.12,0-3.502-1.493-3.502-3.576
				c0-2.875,2.304-5.289,4.866-5.289C113.303,119.068,114.686,120.542,114.686,122.625z M111.203,120.082
				c-1.714,0-2.691,3.354-2.691,5.142c0,1.18,0.498,1.677,1.29,1.677c1.714,0,2.691-3.354,2.691-5.142
				C112.492,120.579,111.995,120.082,111.203,120.082z"/>
			<path fill="#9A9A9A" d="M122.244,126.201c0-0.461,0.111-1.161,0.406-2.101l-0.129-0.056c-1.216,2.673-2.506,3.889-3.833,3.889
				c-1.013,0-1.677-0.792-1.677-1.935c0-1.548,1.309-3.999,1.309-5.05c0-0.258-0.111-0.387-0.276-0.387
				c-0.387,0-0.701,0.405-1.364,1.787l-0.867-0.369c0.756-1.824,1.733-2.912,3.005-2.912c0.976,0,1.548,0.608,1.548,1.677
				c0,1.713-1.217,3.667-1.217,4.847c0,0.517,0.202,0.719,0.516,0.719c0.83,0,2.359-1.364,3.871-7.114h2.211l-1.511,5.713
				c-0.147,0.498-0.202,0.811-0.202,1.051c0,0.313,0.165,0.479,0.424,0.479c0.424,0,0.811-0.627,1.235-1.861l0.885,0.276
				c-0.719,2.249-1.714,3.078-2.765,3.078C122.853,127.933,122.244,127.398,122.244,126.201z"/>
			<path fill="#9A9A9A" d="M130.19,120.597c-0.424,0-0.755,0.535-1.345,1.769l-0.866-0.369c0.884-2.027,1.75-2.912,2.912-2.912
				c0.829,0,1.382,0.608,1.382,1.659c0,0.128-0.018,0.295-0.036,0.461l0.147,0.055c0.7-1.456,1.824-2.193,2.838-2.193
				c1.548,0,2.433,1.272,2.433,2.985c0,2.968-2.046,5.714-4.313,5.714c-0.977,0-1.751-0.498-2.101-1.235l-0.738,2.746h1.733
				l-0.369,1.364h-5.105l0.369-1.364h1.254l1.954-7.299C130.615,120.948,130.522,120.597,130.19,120.597z M131.683,125.095
				c0,0.902,0.387,1.529,1.198,1.529c1.64,0,2.562-3.096,2.562-4.552c0-1.032-0.332-1.567-1.013-1.567
				C132.955,120.505,131.683,123.473,131.683,125.095z"/>
		</g>
	</g>
	<g>
		<path fill="#ED1944" d="M113.98,19.358V54c0,15.849-10.95,26.798-25.141,26.798h-0.144c-14.191,0-25.141-10.949-25.141-26.798
			V19.358H113.98z"/>
	</g>
	<g>
		<path fill="#FFFFFF" d="M98.877,34.539H78.657c-1.269,0-2.308,1.038-2.308,2.308v5.438h5.609v-0.888
			c0-0.689,0.559-1.248,1.248-1.248h11.122c0.689,0,1.248,0.559,1.248,1.248v0.888h5.609v-5.438
			C101.185,35.578,100.146,34.539,98.877,34.539z"/>
		<path fill="#FFFFFF" d="M95.576,51.989c0,0.689-0.559,1.248-1.248,1.248H83.206c-0.689,0-1.248-0.559-1.248-1.248v-0.888h-5.609
			v5.438c0,1.269,1.038,2.308,2.308,2.308h20.221c1.269,0,2.308-1.038,2.308-2.308v-5.438h-5.609V51.989z"/>
		<rect x="76.349" y="43.888" fill="#FFFFFF" width="5.609" height="5.609"/>
		<rect x="95.45" y="43.888" fill="#FFFFFF" width="5.609" height="5.609"/>
	</g>
	<g>
		<g>
			<path fill="#1C1C1C" d="M24.199,93.607h3.152l5.733,16.079h-3.426l-1.188-3.472h-5.505l-1.165,3.472h-3.335L24.199,93.607z
				 M27.465,103.291l-1.736-5.207l-1.759,5.207H27.465z"/>
			<path fill="#1C1C1C" d="M36.964,103.473v-9.775h3.312v9.798c0,2.261,1.073,3.38,2.786,3.38c1.713,0,2.786-1.096,2.786-3.312
				v-9.867h3.289v9.707c0,4.408-2.421,6.532-6.121,6.532C39.339,109.937,36.964,107.79,36.964,103.473z"/>
			<path fill="#1C1C1C" d="M53.497,107.539l1.964-2.443c1.073,0.936,2.375,1.804,3.974,1.804c1.279,0,2.056-0.64,2.056-1.576v-0.022
				c0-0.799-0.457-1.302-2.741-2.17c-2.832-1.096-4.591-2.17-4.591-4.91v-0.046c0-2.786,2.147-4.682,5.23-4.682
				c1.873,0,3.7,0.639,5.162,1.964l-1.85,2.513c-1.005-0.823-2.17-1.485-3.403-1.485c-1.142,0-1.85,0.571-1.85,1.394v0.022
				c0,0.913,0.548,1.348,3.038,2.375c2.786,1.097,4.294,2.284,4.294,4.774v0.046c0,2.969-2.261,4.796-5.368,4.796
				C57.379,109.891,55.255,109.183,53.497,107.539z"/>
			<path fill="#1C1C1C" d="M72.474,96.759h-4.02v-3.061h11.328v3.061h-4.02v12.927h-3.289V96.759z"/>
			<path fill="#1C1C1C" d="M84.554,93.698h6.007c1.851,0,3.335,0.525,4.34,1.53c0.868,0.868,1.348,2.124,1.348,3.7v0.091
				c0,2.421-1.211,3.951-2.969,4.728l3.403,5.938H92.89l-2.947-5.253h-2.078v5.253h-3.312V93.698z M90.309,101.51
				c1.69,0,2.604-0.96,2.604-2.398v-0.023c0-1.599-0.982-2.398-2.672-2.398h-2.376v4.82H90.309z"/>
			<path fill="#1C1C1C" d="M105.929,93.607h3.152l5.732,16.079h-3.426l-1.188-3.472h-5.504l-1.165,3.472h-3.335L105.929,93.607z
				 M109.195,103.291l-1.736-5.207l-1.758,5.207H109.195z"/>
			<path fill="#1C1C1C" d="M119.333,93.698h3.312v12.951h6.464v3.037h-9.775V93.698z"/>
			<path fill="#1C1C1C" d="M133.97,93.698h3.312v15.988h-3.312V93.698z"/>
			<path fill="#1C1C1C" d="M147.649,93.607h3.152l5.732,16.079h-3.426l-1.188-3.472h-5.504l-1.165,3.472h-3.335L147.649,93.607z
				 M150.915,103.291l-1.736-5.207l-1.758,5.207H150.915z"/>
		</g>
	</g>
</g>
</svg>
