<?xml version="1.0" encoding="utf-8"?>
<!-- Generator: Adobe Illustrator 20.1.0, SVG Export Plug-In . SVG Version: 6.00 Build 0)  -->
<svg version="1.1" id="Layer_1" xmlns="http://www.w3.org/2000/svg" xmlns:xlink="http://www.w3.org/1999/xlink" x="0px" y="0px"
	 viewBox="0 0 175 150" enable-background="new 0 0 175 150" xml:space="preserve">
<g>
	<g>
		<g>
			<path fill="#ED1944" d="M8.783,56.492h25.43c11.634,0,19.671,8.038,19.671,18.455v0.106c0,10.417-8.037,18.455-19.671,18.455
				H8.783V56.492z"/>
		</g>
		<g>
			<path fill="#FFFFFF" d="M36.972,65.98H22.015c-0.939,0-1.707,0.768-1.707,1.707v4.022h4.149v-0.657
				c0-0.51,0.413-0.923,0.923-0.923h8.227c0.51,0,0.923,0.413,0.923,0.923v0.657h4.149v-4.022
				C38.679,66.748,37.911,65.98,36.972,65.98z"/>
			<path fill="#FFFFFF" d="M34.53,78.887c0,0.51-0.413,0.923-0.923,0.923H25.38c-0.51,0-0.923-0.413-0.923-0.923V78.23h-4.149v4.022
				c0,0.939,0.768,1.707,1.707,1.707h14.957c0.939,0,1.707-0.768,1.707-1.707V78.23H34.53V78.887z"/>
			<rect x="20.308" y="72.895" fill="#FFFFFF" width="4.149" height="4.149"/>
			<rect x="34.437" y="72.895" fill="#FFFFFF" width="4.149" height="4.149"/>
		</g>
	</g>
	<g>
		<g>
			<g>
				<path fill="#9A9A9A" d="M67.689,77.321c2.273,0,3.867,1.622,3.867,4.006c0,2.675-2.01,5.558-5.087,5.558
					c-2.273,0-3.881-1.622-3.881-4.006C62.588,80.204,64.598,77.321,67.689,77.321z M64.445,83.49c0,1.608,0.79,2.384,2.093,2.384
					c2.259,0,3.174-3.368,3.174-5.156c0-1.608-0.804-2.385-2.093-2.385C65.346,78.333,64.445,81.702,64.445,83.49z"/>
				<path fill="#9A9A9A" d="M74.011,81.286c-0.319,0-0.569,0.402-1.012,1.331l-0.651-0.277c0.665-1.525,1.317-2.19,2.19-2.19
					c0.624,0,1.039,0.457,1.039,1.248c0,0.097-0.014,0.222-0.028,0.347l0.111,0.042c0.527-1.095,1.373-1.65,2.135-1.65
					c1.165,0,1.83,0.956,1.83,2.246c0,2.232-1.538,4.297-3.244,4.297c-0.735,0-1.317-0.374-1.58-0.929l-0.555,2.066h1.303
					l-0.277,1.026h-3.84l0.277-1.026h0.943l1.469-5.49C74.329,81.549,74.26,81.286,74.011,81.286z M75.133,84.668
					c0,0.679,0.291,1.15,0.901,1.15c1.234,0,1.927-2.329,1.927-3.424c0-0.776-0.25-1.178-0.763-1.178
					C76.09,81.217,75.133,83.448,75.133,84.668z"/>
				<path fill="#9A9A9A" d="M82.384,84.058c-0.014,0.111-0.014,0.222-0.014,0.319c0,1.15,0.596,1.511,1.289,1.511
					c0.679,0,1.358-0.457,1.941-1.275l0.582,0.416c-0.707,1.012-1.567,1.774-3.036,1.774c-1.428,0-2.426-0.998-2.426-2.523
					c0-2.135,1.844-4.145,4.02-4.145c1.192,0,1.857,0.596,1.857,1.442C86.599,82.824,85.296,83.892,82.384,84.058z M82.509,83.407
					c1.927-0.208,2.634-0.957,2.634-1.816c0-0.388-0.222-0.693-0.638-0.693C83.535,80.898,82.8,82.215,82.509,83.407z"/>
				<path fill="#9A9A9A" d="M93.766,85.68c0.291,0,0.582-0.444,0.956-1.4l0.651,0.208c-0.554,1.677-1.331,2.315-2.12,2.315
					c-0.749,0-1.234-0.485-1.234-1.289c0-1.386,0.915-2.758,0.915-3.701c0-0.319-0.138-0.457-0.374-0.457
					c-0.637,0-1.83,1.053-2.939,5.309h-1.663l1.192-4.491c0.208-0.79,0.167-1.012-0.083-1.012c-0.319,0-0.679,0.596-1.081,1.455
					l-0.651-0.277c0.596-1.386,1.289-2.19,2.217-2.19c0.596,0,1.012,0.43,1.012,1.289c0,0.402-0.084,0.901-0.291,1.539l0.097,0.042
					c0.915-1.955,1.941-2.884,2.925-2.884c0.776,0,1.262,0.61,1.262,1.442c0,1.178-1.026,2.952-1.026,3.798
					C93.53,85.583,93.613,85.68,93.766,85.68z"/>
				<path fill="#9A9A9A" d="M96.567,83.421h0.984c0.263,1.663,1.234,2.481,2.453,2.481c1.095,0,1.733-0.693,1.733-1.414
					c0-0.804-0.915-1.178-1.899-1.636c-1.151-0.513-2.412-1.123-2.412-2.592c0-1.553,1.4-2.939,3.244-2.939
					c0.984,0,1.899,0.402,2.356,1.053l0.568-1.012h1.04l-0.818,3.285h-0.97c-0.291-1.718-0.984-2.356-2.176-2.356
					c-0.901,0-1.539,0.652-1.539,1.372c0,0.873,0.943,1.248,1.941,1.691c1.136,0.485,2.356,1.067,2.356,2.523
					c0,1.705-1.511,3.008-3.41,3.008c-1.206,0-2.107-0.443-2.634-1.109l-0.61,1.067h-1.039L96.567,83.421z"/>
				<path fill="#9A9A9A" d="M107.727,81.272l-0.832,3.036c-0.097,0.346-0.167,0.665-0.167,0.832c0,0.374,0.194,0.499,0.486,0.499
					c0.499,0,0.915-0.61,1.303-1.497l0.666,0.222c-0.679,1.968-1.747,2.439-2.495,2.439c-0.915,0-1.566-0.457-1.566-1.4
					c0-0.402,0.152-0.984,0.249-1.372l0.749-2.758h-1.22l0.222-0.846h1.22l0.457-1.664l1.649-0.18l-0.499,1.844h1.969l-0.222,0.846
					H107.727z"/>
				<path fill="#9A9A9A" d="M115.559,84.529c-0.111,0.361-0.152,0.61-0.152,0.79c0,0.236,0.111,0.361,0.319,0.361
					c0.305,0,0.61-0.471,0.929-1.4l0.665,0.208c-0.541,1.691-1.289,2.315-2.134,2.315c-0.652,0-1.137-0.416-1.137-1.219
					c0-0.097,0-0.167,0.014-0.305l-0.097-0.042c-0.527,1.039-1.317,1.566-2.107,1.566c-1.192,0-1.844-0.984-1.844-2.204
					c0-1.414,0.568-2.675,1.317-3.41c0.651-0.666,1.386-1.054,2.163-1.054c0.776,0,1.22,0.541,1.345,1.165l0.277-1.067h1.581
					L115.559,84.529z M114.492,82.145c0-0.721-0.264-1.109-0.749-1.109c-1.233,0-2.051,2.301-2.051,3.424
					c0,0.818,0.291,1.234,0.804,1.234C113.619,85.694,114.492,83.268,114.492,82.145z"/>
				<path fill="#9A9A9A" d="M123.975,81.771c0,0.596-0.374,1.192-0.97,1.192c-0.499,0-0.818-0.333-0.818-0.749
					c0-0.388,0.236-0.707,0.568-0.943c-0.111-0.194-0.346-0.347-0.762-0.347c-1.387,0-2.204,2.121-2.204,3.327
					c0,1.192,0.637,1.566,1.261,1.566c0.638,0,1.248-0.457,1.803-1.317l0.596,0.402c-0.596,1.039-1.414,1.899-2.772,1.899
					c-1.525,0-2.551-1.039-2.551-2.55c0-2.163,1.857-4.117,3.84-4.117C123.129,80.135,123.975,80.787,123.975,81.771z"/>
				<path fill="#9A9A9A" d="M129.603,85.68c0.305,0,0.569-0.444,0.929-1.4l0.652,0.208c-0.527,1.677-1.248,2.315-2.052,2.315
					c-0.776,0-1.289-0.513-1.289-1.414c0-0.388,0.153-0.943,0.153-1.248c0-0.513-0.222-0.637-1.234-0.637h-0.028l-0.846,3.161
					h-1.567l2.246-8.47h-1.15l0.277-1.082h2.759L126.9,82.88h0.069c0.735,0,1.04-0.415,1.65-1.428
					c0.457-0.748,0.915-1.317,1.733-1.317c0.665,0,1.026,0.416,1.026,1.012c0,0.582-0.374,1.164-0.943,1.164
					c-0.554,0-0.846-0.485-0.651-1.053c-0.194,0.042-0.402,0.277-0.721,0.804c-0.277,0.513-0.499,0.804-0.915,1.026
					c0.984,0.083,1.303,0.513,1.303,1.165c0,0.402-0.111,0.804-0.111,1.053C129.34,85.583,129.451,85.68,129.603,85.68z"/>
				<path fill="#9A9A9A" d="M134.401,85.625h1.4l1.747-7.042h-1.414l0.263-1.04h3.674c2.883,0,4.408,1.511,4.408,3.563
					c0,1.331-0.54,2.814-1.608,3.868c-1.04,1.054-2.606,1.691-4.699,1.691h-4.006L134.401,85.625z M138.324,85.639
					c1.261,0,2.107-0.264,2.828-0.985c0.818-0.817,1.414-2.523,1.414-3.853c0-1.47-0.832-2.232-2.509-2.232h-0.748l-1.761,7.07
					H138.324z"/>
				<path fill="#9A9A9A" d="M150.703,84.529c-0.111,0.361-0.152,0.61-0.152,0.79c0,0.236,0.111,0.361,0.319,0.361
					c0.305,0,0.61-0.471,0.929-1.4l0.665,0.208c-0.541,1.691-1.289,2.315-2.134,2.315c-0.652,0-1.137-0.416-1.137-1.219
					c0-0.097,0-0.167,0.014-0.305l-0.097-0.042c-0.527,1.039-1.317,1.566-2.107,1.566c-1.192,0-1.844-0.984-1.844-2.204
					c0-1.414,0.568-2.675,1.317-3.41c0.651-0.666,1.386-1.054,2.163-1.054c0.776,0,1.22,0.541,1.345,1.165l0.277-1.067h1.581
					L150.703,84.529z M149.636,82.145c0-0.721-0.264-1.109-0.749-1.109c-1.233,0-2.051,2.301-2.051,3.424
					c0,0.818,0.291,1.234,0.804,1.234C148.763,85.694,149.636,83.268,149.636,82.145z"/>
				<path fill="#9A9A9A" d="M156.18,81.341c0,1.275-0.804,2.523-0.804,3.327c0,0.346,0.153,0.485,0.457,0.485
					c0.735,0,1.719-0.832,2.773-4.921h1.552l-1.275,5.351c-0.596,2.55-1.996,3.437-3.729,3.437c-0.97,0-2.135-0.263-2.135-1.289
					c0-0.444,0.333-0.998,0.956-0.998c0.554,0,0.832,0.388,0.804,0.846c-0.014,0.222-0.138,0.471-0.277,0.596
					c0.167,0.056,0.374,0.097,0.638,0.097c1.081,0,1.816-0.873,2.287-2.801l0.277-1.095l-0.084-0.042
					c-0.804,1.469-1.663,2.01-2.467,2.01c-0.915,0-1.372-0.637-1.372-1.442c0-1.067,0.887-2.565,0.887-3.355
					c0-0.18-0.084-0.291-0.208-0.291c-0.347,0-0.679,0.568-1.053,1.358l-0.652-0.277c0.61-1.386,1.372-2.204,2.288-2.204
					C155.751,80.135,156.18,80.606,156.18,81.341z"/>
				<path fill="#9A9A9A" d="M163.029,86.803c-1.303,0-2.648-0.554-2.648-1.608c0-0.541,0.361-0.998,0.915-0.998
					c0.541,0,0.818,0.388,0.818,0.763c0,0.333-0.152,0.61-0.333,0.763c0.236,0.208,0.693,0.361,1.192,0.361
					c0.707,0,1.151-0.347,1.151-0.985c0-0.527-0.569-0.79-1.275-1.109c-0.818-0.374-1.622-0.776-1.622-1.719
					c0-1.455,1.4-2.135,2.606-2.135c1.414,0,2.384,0.624,2.384,1.456c0,0.541-0.36,0.998-0.887,0.998
					c-0.513,0-0.817-0.361-0.817-0.763c0-0.277,0.138-0.568,0.332-0.735c-0.138-0.125-0.54-0.263-0.956-0.263
					c-0.665,0-1.15,0.347-1.15,0.929c0,0.554,0.582,0.818,1.386,1.192c0.734,0.332,1.525,0.72,1.525,1.677
					C165.649,86.068,164.401,86.803,163.029,86.803z"/>
			</g>
		</g>
		<g>
			<g>
				<path fill="#1C1C1C" d="M63.13,67.369v-0.206c0-3.71,2.421-6.131,5.581-6.131c1.889,0,3.177,0.739,4.156,1.889l-1.992,2.113
					c-0.515-0.618-1.168-1.133-2.113-1.133c-1.408,0-2.456,1.254-2.456,3.297v0.069c0,2.147,1.065,3.331,2.456,3.331
					c1.03,0,1.649-0.55,2.198-1.185l1.958,1.992c-0.979,1.202-2.318,2.061-4.328,2.061C65.517,73.466,63.13,71.114,63.13,67.369z"/>
				<path fill="#1C1C1C" d="M75.271,67.387v-0.258c0-3.589,2.353-6.114,5.581-6.114c3.246,0,5.564,2.49,5.564,6.097v0.257
					c0,3.59-2.353,6.114-5.581,6.114C77.589,73.483,75.271,70.993,75.271,67.387z M83.257,67.352v-0.189
					c0-2.078-0.996-3.348-2.421-3.348c-1.426,0-2.404,1.254-2.404,3.331v0.189c0,2.078,0.996,3.349,2.421,3.349
					C82.295,70.684,83.257,69.43,83.257,67.352z"/>
				<path fill="#1C1C1C" d="M89.765,61.239h3.091v9.239h4.723v2.782h-7.814V61.239z"/>
				<path fill="#1C1C1C" d="M99.743,67.387v-0.258c0-3.589,2.353-6.114,5.581-6.114c3.246,0,5.564,2.49,5.564,6.097v0.257
					c0,3.59-2.353,6.114-5.581,6.114C102.061,73.483,99.743,70.993,99.743,67.387z M107.728,67.352v-0.189
					c0-2.078-0.996-3.348-2.421-3.348c-1.426,0-2.404,1.254-2.404,3.331v0.189c0,2.078,0.996,3.349,2.421,3.349
					C106.767,70.684,107.728,69.43,107.728,67.352z"/>
				<path fill="#1C1C1C" d="M114.237,61.239h4.723c1.614,0,2.834,0.429,3.606,1.219c0.67,0.67,1.048,1.597,1.048,2.816v0.086
					c0,1.786-0.876,2.902-2.147,3.538l2.473,4.362h-3.486l-2.044-3.727h-1.099v3.727h-3.074V61.239z M118.84,67.078
					c1.047,0,1.666-0.601,1.666-1.563v-0.034c0-1.03-0.652-1.546-1.683-1.546h-1.511v3.143H118.84z"/>
				<path fill="#1C1C1C" d="M130.14,61.17h3.125l4.242,12.09h-3.246l-0.705-2.164h-3.778l-0.687,2.164h-3.177L130.14,61.17z
					 M132.784,68.624l-1.116-3.521l-1.116,3.521H132.784z"/>
				<path fill="#1C1C1C" d="M140.357,61.239h3.95c3.864,0,6.063,2.336,6.063,5.874v0.206c0,3.538-2.216,5.942-6.114,5.942h-3.899
					V61.239z M143.448,64.003v6.492h0.893c1.717,0,2.868-1.013,2.868-3.16V67.18c0-2.164-1.151-3.177-2.868-3.177H143.448z"/>
				<path fill="#1C1C1C" d="M153.374,67.387v-0.258c0-3.589,2.353-6.114,5.581-6.114c3.246,0,5.564,2.49,5.564,6.097v0.257
					c0,3.59-2.353,6.114-5.581,6.114C155.693,73.483,153.374,70.993,153.374,67.387z M161.36,67.352v-0.189
					c0-2.078-0.996-3.348-2.421-3.348s-2.404,1.254-2.404,3.331v0.189c0,2.078,0.996,3.349,2.421,3.349
					C160.398,70.684,161.36,69.43,161.36,67.352z"/>
			</g>
		</g>
	</g>
</g>
</svg>
