<?xml version="1.0" encoding="utf-8"?>
<!-- Generator: Adobe Illustrator 20.1.0, SVG Export Plug-In . SVG Version: 6.00 Build 0)  -->
<svg version="1.1" id="Layer_1" xmlns="http://www.w3.org/2000/svg" xmlns:xlink="http://www.w3.org/1999/xlink" x="0px" y="0px"
	 viewBox="0 0 175 150" enable-background="new 0 0 175 150" xml:space="preserve">
<g>
	<g>
		<g>
			<path fill="#ED1944" d="M55.659,19.358H94.11c17.591,0,29.744,12.154,29.744,27.905v0.16c0,15.751-12.153,27.905-29.744,27.905
				H55.659V19.358z"/>
		</g>
		<g>
			<path fill="#FFFFFF" d="M98.282,33.704H75.666c-1.42,0-2.581,1.161-2.581,2.581v6.082h6.273v-0.994
				c0-0.771,0.625-1.396,1.396-1.396h12.44c0.771,0,1.396,0.625,1.396,1.396v0.994h6.273v-6.082
				C100.862,34.865,99.701,33.704,98.282,33.704z"/>
			<path fill="#FFFFFF" d="M94.589,53.22c0,0.771-0.625,1.396-1.396,1.396h-12.44c-0.771,0-1.396-0.625-1.396-1.396v-0.994h-6.273
				v6.082c0,1.42,1.161,2.581,2.581,2.581h22.615c1.42,0,2.581-1.161,2.581-2.581v-6.082h-6.273V53.22z"/>
			<rect x="73.085" y="44.16" fill="#FFFFFF" width="6.273" height="6.273"/>
			<rect x="94.449" y="44.16" fill="#FFFFFF" width="6.273" height="6.273"/>
		</g>
	</g>
	<g>
		<g>
			<path fill="#9A9A9A" d="M16.916,113.376c3.355,0,5.708,2.394,5.708,5.913c0,3.948-2.966,8.203-7.508,8.203
				c-3.355,0-5.728-2.393-5.728-5.912C9.388,117.631,12.354,113.376,16.916,113.376z M12.129,122.479
				c0,2.373,1.166,3.519,3.089,3.519c3.334,0,4.685-4.971,4.685-7.61c0-2.373-1.186-3.519-3.089-3.519
				C13.459,114.869,12.129,119.841,12.129,122.479z"/>
			<path fill="#9A9A9A" d="M26.248,119.226c-0.471,0-0.839,0.593-1.494,1.964l-0.961-0.409c0.982-2.25,1.944-3.232,3.232-3.232
				c0.92,0,1.534,0.675,1.534,1.841c0,0.143-0.021,0.327-0.041,0.511l0.163,0.061c0.777-1.616,2.025-2.434,3.151-2.434
				c1.718,0,2.7,1.412,2.7,3.313c0,3.294-2.271,6.342-4.787,6.342c-1.084,0-1.943-0.552-2.332-1.37l-0.818,3.048h1.923l-0.409,1.514
				h-5.667l0.409-1.514h1.391l2.168-8.101C26.718,119.615,26.616,119.226,26.248,119.226z M27.905,124.219
				c0,1.002,0.43,1.697,1.329,1.697c1.821,0,2.844-3.437,2.844-5.053c0-1.146-0.368-1.739-1.125-1.739
				C29.317,119.124,27.905,122.418,27.905,124.219z"/>
			<path fill="#9A9A9A" d="M38.607,123.318c-0.021,0.163-0.021,0.327-0.021,0.47c0,1.698,0.88,2.23,1.903,2.23
				c1.002,0,2.005-0.675,2.864-1.882l0.859,0.614c-1.044,1.494-2.312,2.619-4.48,2.619c-2.107,0-3.58-1.473-3.58-3.723
				c0-3.15,2.721-6.116,5.932-6.116c1.759,0,2.741,0.879,2.741,2.127C44.826,121.497,42.903,123.073,38.607,123.318z
				 M38.791,122.357c2.844-0.308,3.887-1.412,3.887-2.681c0-0.572-0.327-1.023-0.941-1.023
				C40.305,118.654,39.221,120.598,38.791,122.357z"/>
			<path fill="#9A9A9A" d="M55.404,125.711c0.43,0,0.859-0.655,1.412-2.066l0.962,0.307c-0.818,2.475-1.964,3.416-3.13,3.416
				c-1.105,0-1.821-0.716-1.821-1.903c0-2.045,1.35-4.071,1.35-5.462c0-0.471-0.205-0.676-0.552-0.676
				c-0.941,0-2.701,1.555-4.337,7.835h-2.455l1.759-6.628c0.307-1.166,0.246-1.493-0.123-1.493c-0.471,0-1.002,0.879-1.596,2.147
				l-0.962-0.409c0.88-2.045,1.903-3.232,3.273-3.232c0.88,0,1.494,0.634,1.494,1.903c0,0.593-0.123,1.329-0.43,2.271l0.143,0.061
				c1.35-2.884,2.864-4.255,4.317-4.255c1.145,0,1.862,0.9,1.862,2.127c0,1.738-1.514,4.357-1.514,5.605
				C55.056,125.568,55.179,125.711,55.404,125.711z"/>
			<path fill="#9A9A9A" d="M60.358,122.377h1.453c0.389,2.455,1.82,3.662,3.621,3.662c1.616,0,2.557-1.023,2.557-2.087
				c0-1.186-1.35-1.738-2.803-2.414c-1.697-0.757-3.559-1.657-3.559-3.826c0-2.291,2.066-4.337,4.786-4.337
				c1.453,0,2.803,0.593,3.478,1.555l0.838-1.494h1.535l-1.207,4.849h-1.432c-0.429-2.537-1.453-3.478-3.212-3.478
				c-1.329,0-2.27,0.961-2.27,2.025c0,1.288,1.391,1.841,2.863,2.495c1.678,0.717,3.478,1.576,3.478,3.723
				c0,2.516-2.23,4.439-5.032,4.439c-1.779,0-3.109-0.654-3.886-1.636l-0.9,1.575h-1.534L60.358,122.377z"/>
			<path fill="#9A9A9A" d="M77.238,119.206l-1.227,4.48c-0.143,0.511-0.246,0.982-0.246,1.227c0,0.552,0.287,0.737,0.716,0.737
				c0.737,0,1.35-0.9,1.923-2.209l0.982,0.328c-1.002,2.904-2.577,3.6-3.682,3.6c-1.35,0-2.312-0.675-2.312-2.066
				c0-0.593,0.225-1.453,0.368-2.025l1.105-4.071h-1.8l0.328-1.248h1.8l0.675-2.455l2.434-0.266l-0.736,2.721h2.905l-0.328,1.248
				H77.238z"/>
			<path fill="#9A9A9A" d="M89.207,124.013c-0.163,0.532-0.225,0.9-0.225,1.167c0,0.348,0.163,0.531,0.47,0.531
				c0.45,0,0.9-0.696,1.37-2.066l0.982,0.307c-0.798,2.496-1.903,3.416-3.151,3.416c-0.961,0-1.677-0.614-1.677-1.8
				c0-0.143,0-0.246,0.02-0.45l-0.143-0.061c-0.778,1.535-1.944,2.312-3.11,2.312c-1.759,0-2.721-1.453-2.721-3.253
				c0-2.086,0.838-3.948,1.943-5.032c0.961-0.982,2.046-1.555,3.192-1.555c1.145,0,1.8,0.797,1.984,1.718l0.409-1.575h2.333
				L89.207,124.013z M87.632,120.495c0-1.064-0.389-1.637-1.105-1.637c-1.821,0-3.028,3.396-3.028,5.053
				c0,1.207,0.429,1.821,1.186,1.821C86.343,125.732,87.632,122.152,87.632,120.495z"/>
			<path fill="#9A9A9A" d="M101.628,119.943c0,0.879-0.552,1.759-1.432,1.759c-0.736,0-1.207-0.491-1.207-1.105
				c0-0.573,0.348-1.044,0.839-1.391c-0.163-0.287-0.511-0.511-1.125-0.511c-2.046,0-3.253,3.13-3.253,4.909
				c0,1.759,0.941,2.312,1.862,2.312c0.941,0,1.841-0.675,2.66-1.943l0.879,0.593c-0.879,1.535-2.086,2.803-4.091,2.803
				c-2.251,0-3.764-1.534-3.764-3.764c0-3.191,2.742-6.075,5.667-6.075C100.38,117.529,101.628,118.49,101.628,119.943z"/>
			<path fill="#9A9A9A" d="M110.344,125.711c0.45,0,0.839-0.655,1.37-2.066l0.962,0.307c-0.778,2.475-1.841,3.416-3.028,3.416
				c-1.145,0-1.902-0.757-1.902-2.086c0-0.573,0.225-1.391,0.225-1.841c0-0.757-0.327-0.941-1.821-0.941h-0.041l-1.248,4.665h-2.312
				l3.314-12.499h-1.697l0.409-1.596h4.071l-2.292,8.51h0.102c1.085,0,1.535-0.614,2.434-2.107c0.676-1.105,1.35-1.943,2.557-1.943
				c0.982,0,1.514,0.614,1.514,1.493c0,0.859-0.552,1.718-1.391,1.718c-0.819,0-1.248-0.716-0.961-1.554
				c-0.287,0.061-0.593,0.409-1.064,1.186c-0.409,0.757-0.736,1.187-1.35,1.514c1.452,0.123,1.923,0.757,1.923,1.718
				c0,0.593-0.163,1.187-0.163,1.555C109.956,125.568,110.12,125.711,110.344,125.711z"/>
			<path fill="#9A9A9A" d="M117.426,125.63h2.066l2.578-10.393h-2.087l0.389-1.534h5.421c4.255,0,6.506,2.23,6.506,5.257
				c0,1.964-0.798,4.153-2.373,5.707c-1.535,1.555-3.846,2.496-6.935,2.496h-5.913L117.426,125.63z M123.215,125.65
				c1.862,0,3.11-0.389,4.173-1.453c1.207-1.207,2.087-3.723,2.087-5.687c0-2.168-1.228-3.293-3.703-3.293h-1.105l-2.598,10.433
				H123.215z"/>
			<path fill="#9A9A9A" d="M141.897,124.013c-0.163,0.532-0.225,0.9-0.225,1.167c0,0.348,0.163,0.531,0.47,0.531
				c0.45,0,0.9-0.696,1.37-2.066l0.982,0.307c-0.798,2.496-1.903,3.416-3.151,3.416c-0.961,0-1.677-0.614-1.677-1.8
				c0-0.143,0-0.246,0.02-0.45l-0.143-0.061c-0.778,1.535-1.944,2.312-3.11,2.312c-1.759,0-2.721-1.453-2.721-3.253
				c0-2.086,0.838-3.948,1.943-5.032c0.961-0.982,2.046-1.555,3.192-1.555s1.8,0.797,1.984,1.718l0.409-1.575h2.333L141.897,124.013
				z M140.322,120.495c0-1.064-0.389-1.637-1.105-1.637c-1.821,0-3.028,3.396-3.028,5.053c0,1.207,0.429,1.821,1.187,1.821
				C139.033,125.732,140.322,122.152,140.322,120.495z"/>
			<path fill="#9A9A9A" d="M150.389,119.309c0,1.882-1.187,3.723-1.187,4.91c0,0.511,0.225,0.716,0.676,0.716
				c1.084,0,2.536-1.228,4.091-7.262h2.291l-1.882,7.896c-0.879,3.764-2.945,5.074-5.503,5.074c-1.432,0-3.151-0.389-3.151-1.903
				c0-0.655,0.491-1.473,1.412-1.473c0.818,0,1.228,0.572,1.187,1.248c-0.021,0.327-0.205,0.696-0.409,0.879
				c0.246,0.082,0.552,0.143,0.94,0.143c1.596,0,2.681-1.288,3.375-4.132l0.41-1.616l-0.123-0.061
				c-1.186,2.168-2.455,2.966-3.641,2.966c-1.35,0-2.025-0.941-2.025-2.128c0-1.575,1.309-3.784,1.309-4.95
				c0-0.266-0.123-0.429-0.308-0.429c-0.511,0-1.002,0.838-1.554,2.004l-0.962-0.409c0.9-2.045,2.026-3.252,3.376-3.252
				C149.755,117.529,150.389,118.224,150.389,119.309z"/>
			<path fill="#9A9A9A" d="M160.907,127.369c-1.923,0-3.907-0.818-3.907-2.373c0-0.798,0.531-1.473,1.35-1.473
				c0.798,0,1.207,0.573,1.207,1.125c0,0.491-0.225,0.9-0.49,1.125c0.348,0.307,1.023,0.532,1.759,0.532
				c1.043,0,1.697-0.511,1.697-1.453c0-0.777-0.838-1.166-1.882-1.636c-1.207-0.552-2.394-1.146-2.394-2.537
				c0-2.147,2.066-3.15,3.846-3.15c2.086,0,3.519,0.92,3.519,2.147c0,0.798-0.532,1.474-1.309,1.474
				c-0.757,0-1.207-0.532-1.207-1.126c0-0.409,0.205-0.838,0.49-1.084c-0.205-0.184-0.797-0.389-1.412-0.389
				c-0.982,0-1.697,0.511-1.697,1.37c0,0.818,0.859,1.207,2.045,1.759c1.085,0.491,2.251,1.064,2.251,2.475
				C164.773,126.285,162.932,127.369,160.907,127.369z"/>
		</g>
	</g>
	<g>
		<g>
			<path fill="#1C1C1C" d="M10.807,98.369v-0.228c0-5.375,3.346-9.025,8.036-9.025c2.636,0,4.335,0.963,5.704,2.358l-2.206,2.839
				c-1.064-1.089-2.18-1.775-3.625-1.775c-2.383,0-4.132,2.206-4.132,5.654v0.076c0,3.524,1.825,5.678,4.183,5.678
				c1.42,0,2.459-0.659,3.65-1.85l2.206,2.611c-1.597,1.647-3.296,2.662-6.008,2.662C13.951,107.369,10.807,103.795,10.807,98.369z"
				/>
			<path fill="#1C1C1C" d="M28.778,98.42v-0.304c0-5.324,3.346-9.05,8.036-9.05c4.715,0,8.011,3.702,8.011,9v0.304
				c0,5.298-3.346,9.05-8.036,9.05C32.073,107.42,28.778,103.718,28.778,98.42z M41.022,98.344v-0.177
				c0-3.499-1.774-5.704-4.233-5.704c-2.484,0-4.234,2.18-4.234,5.679v0.177c0,3.499,1.8,5.704,4.259,5.704
				S41.022,101.842,41.022,98.344z"/>
			<path fill="#1C1C1C" d="M50.551,89.37h3.676v14.374h7.174v3.371h-10.85V89.37z"/>
			<path fill="#1C1C1C" d="M65.124,98.42v-0.304c0-5.324,3.346-9.05,8.036-9.05c4.715,0,8.011,3.702,8.011,9v0.304
				c0,5.298-3.346,9.05-8.036,9.05C68.42,107.42,65.124,103.718,65.124,98.42z M77.369,98.344v-0.177
				c0-3.499-1.775-5.704-4.234-5.704c-2.485,0-4.234,2.18-4.234,5.679v0.177c0,3.499,1.8,5.704,4.259,5.704
				C75.619,104.023,77.369,101.842,77.369,98.344z"/>
			<path fill="#1C1C1C" d="M86.897,89.37h6.667c2.054,0,3.702,0.583,4.817,1.698c0.964,0.964,1.496,2.358,1.496,4.107v0.101
				c0,2.687-1.344,4.386-3.296,5.247l3.777,6.591H96.15l-3.271-5.83h-2.307v5.83h-3.676V89.37z M93.285,98.04
				c1.876,0,2.89-1.065,2.89-2.662v-0.026c0-1.775-1.09-2.662-2.966-2.662h-2.637v5.35H93.285z"/>
			<path fill="#1C1C1C" d="M110.623,89.268h3.499l6.363,17.847h-3.802l-1.319-3.854h-6.109l-1.293,3.854h-3.701L110.623,89.268z
				 M114.248,100.017l-1.927-5.78l-1.952,5.78H114.248z"/>
			<path fill="#1C1C1C" d="M125.5,89.37h5.729c5.147,0,8.467,3.549,8.467,8.746v0.228c0,5.198-3.321,8.772-8.467,8.772H125.5V89.37z
				 M129.176,92.69v11.105h2.028c2.788,0,4.689-1.953,4.689-5.476v-0.126c0-3.524-1.901-5.502-4.689-5.502H129.176z"/>
			<path fill="#1C1C1C" d="M144.763,98.42v-0.304c0-5.324,3.346-9.05,8.036-9.05c4.715,0,8.011,3.702,8.011,9v0.304
				c0,5.298-3.346,9.05-8.036,9.05C148.059,107.42,144.763,103.718,144.763,98.42z M157.008,98.344v-0.177
				c0-3.499-1.775-5.704-4.234-5.704c-2.485,0-4.234,2.18-4.234,5.679v0.177c0,3.499,1.8,5.704,4.259,5.704
				S157.008,101.842,157.008,98.344z"/>
		</g>
	</g>
</g>
</svg>
