<?xml version="1.0" encoding="utf-8"?>
<!-- Generator: Adobe Illustrator 19.2.1, SVG Export Plug-In . SVG Version: 6.00 Build 0)  -->
<svg version="1.1" id="Layer_1" xmlns="http://www.w3.org/2000/svg" xmlns:xlink="http://www.w3.org/1999/xlink" x="0px" y="0px"
	 viewBox="0 0 650.3 379.4" enable-background="new 0 0 650.3 379.4" xml:space="preserve">
<g>
	<g>
		<defs>
			<path id="SVGID_1_" d="M596.2,323.5H63.4c-4.4,0-8-3.6-8-8V65.9c0-4.4,3.6-8,8-8h532.8c4.4,0,8,3.6,8,8v249.6
				C604.2,319.9,600.6,323.5,596.2,323.5z"/>
		</defs>
		<clipPath id="SVGID_2_">
			<use xlink:href="#SVGID_1_"  overflow="visible"/>
		</clipPath>
		<rect x="15.3" y="254.7" clip-path="url(#SVGID_2_)" fill="#EC1944" width="635" height="107"/>
	</g>
</g>
<path fill="none" stroke="#EC1944" stroke-width="2" stroke-miterlimit="10" d="M596.2,323.5H63.4c-4.4,0-8-3.6-8-8V65.9
	c0-4.4,3.6-8,8-8h532.8c4.4,0,8,3.6,8,8v249.6C604.2,319.9,600.6,323.5,596.2,323.5z"/>
<g>
	<g>
		<path fill="#EC1944" d="M173.6,117.3h-68.8c-4.3,0-7.9,3.5-7.9,7.9v18.5H116v-3c0-2.3,1.9-4.2,4.2-4.2h37.9c2.3,0,4.2,1.9,4.2,4.2
			v3h19.1v-18.5C181.4,120.9,177.9,117.3,173.6,117.3z"/>
		<path fill="#EC1944" d="M162.3,176.7c0,2.3-1.9,4.2-4.2,4.2h-37.9c-2.3,0-4.2-1.9-4.2-4.2v-3H96.9v18.5c0,4.3,3.5,7.9,7.9,7.9
			h68.8c4.3,0,7.9-3.5,7.9-7.9v-18.5h-19.2V176.7z"/>
		<rect x="96.9" y="149.2" fill="#EC1944" width="19.1" height="19.1"/>
		<rect x="162.3" y="149.2" fill="#EC1944" width="19.1" height="19.1"/>
	</g>
	<path fill="#4E4540" d="M562.7,174.7c0-3-2.4-5.4-5.4-5.4s-5.4,2.4-5.4,5.4s2.4,5.4,5.4,5.4S562.7,177.7,562.7,174.7z M557.2,178.8
		c-2.2,0-4.1-1.8-4.1-4.1c0-2.2,1.8-4.1,4.1-4.1s4.1,1.8,4.1,4.1S559.5,178.8,557.2,178.8z"/>
	<path fill="#4E4540" d="M559.3,173.8L559.3,173.8c0-0.5-0.2-1-0.4-1.2c-0.3-0.3-0.8-0.5-1.4-0.5h-2v5.3h1.1v-1.7h0.7l1,1.7h1.2
		l-1.1-2C558.9,175.1,559.3,174.6,559.3,173.8z M558.2,173.8c0,0.5-0.3,0.8-0.9,0.8h-0.8V173h0.8C557.8,173,558.2,173.3,558.2,173.8
		L558.2,173.8z"/>
	<path fill="#4E4540" d="M240,159.1v-0.7c0-12.7-8.3-21.9-19.7-21.9s-19.8,9.4-19.8,22v0.7c0,12.7,8.3,21.9,19.7,21.9
		C231.6,181,240,171.7,240,159.1z M209.7,158.9v-0.5c0-8,4.1-13.9,10.5-13.9c6.2,0,10.7,6,10.7,14v0.5c0,8-4.1,14-10.5,14
		C214.1,173,209.7,166.9,209.7,158.9z"/>
	<path fill="#4E4540" d="M283.6,159.2v-1.1c0-14.5-8.1-21.7-16.7-21.7c-6.2,0-9.9,3.6-12.5,7.7v-6.9h-9.1v55.1h9.1v-18.7
		c2.6,3.8,6.3,7.3,12.5,7.3C275.6,180.9,283.6,173.6,283.6,159.2z M254.2,159.1v-0.8c0-8.4,4.7-13.8,10.2-13.8s10,5.3,10,13.8v0.7
		c0,8.6-4.4,13.8-10,13.8C258.9,172.8,254.2,167.5,254.2,159.1z"/>
	<path fill="#4E4540" d="M323.2,174.4l-4.8-5.7c-2.8,2.8-5.8,4.5-9.9,4.5c-5.6,0-10-3.9-10.8-11.1h26.9c0.1-1.3,0.1-2.6,0.1-3.2
		c0-12.9-6.2-22.6-17.8-22.6c-10.5,0-18.3,9.2-18.3,22.1v0.6c0,13.4,8.6,21.9,19.6,21.9C314.5,181,319.3,178.5,323.2,174.4z
		 M306.8,144.1c5.3,0,8.4,4.9,8.9,11.7h-18.1C298.3,148.5,301.8,144.1,306.8,144.1z"/>
	<path fill="#4E4540" d="M351.5,136.4c-5.8,0-9.3,3.3-11.7,7.1v-6.3h-9.1v42.9h9.1v-26c0-5.9,3.3-9.5,8.1-9.5c4.9,0,7.7,3.3,7.7,9.3
		V180h9.1v-28.7C364.7,142.2,359.8,136.4,351.5,136.4z"/>
	<path fill="#4E4540" d="M401.6,167.9L401.6,167.9c0-6.8-5-9.9-11.7-12.9c-5-2.3-8.4-3.7-8.4-6.6v-0.2c0-2.3,2-4.2,5.4-4.2
		s7,1.6,10.2,3.8l3.9-6.7c-4-2.9-9.1-4.6-13.9-4.6c-8,0-14.2,4.9-14.2,12.5v0.2c0,7,5.3,10,11.7,12.7c5.1,2.2,8.4,3.6,8.4,6.6v0.1
		c0,2.7-2.2,4.7-6,4.7s-7.9-1.9-11.8-5l-4.3,6.6c4.9,4.1,10.8,6,15.9,6C395.2,180.9,401.6,176.3,401.6,167.9z"/>
	<path fill="#4E4540" d="M429.9,178.9v-7.5c-1.5,0.8-3.2,1.2-4.9,1.2c-2.9,0-4.6-1.4-4.6-4.7v-22.8h9.6v-7.9h-9.6v-11.6h-9.1v11.6
		h-4.7l1.5,7.9h3.2v24.6c0,8.3,4.8,11,11.1,11C425.3,180.8,427.8,180,429.9,178.9z"/>
	<path fill="#4E4540" d="M464.9,141.1c-2.8-2.8-7-4.4-12.6-4.4c-5.7,0-10,1.4-14.2,3.4l2.6,7.3c2.8-1.3,6.2-2.6,10.4-2.6
		c5.8,0,9.2,3,9.2,8.7v1.8c-2.9-1-5.8-1.7-9.9-1.7c-9.1,0-15.2,4.5-15.2,13.8v0.4c0,8.3,6,13.1,13.1,13.1c5.6,0,9.4-2.4,11.9-6.1
		v5.3h9v-26.6C469.2,148.1,467.8,143.9,464.9,141.1z M460.4,165.7c0,4.9-4,8.4-9.3,8.3c-4-0.1-7-2.5-7-6.8V167
		c0-4.5,3.1-7.2,8.3-7.2c3.1,0,5.8,0.6,7.9,1.5v4.4H460.4z"/>
	<path fill="#4E4540" d="M508.1,174.5l-4.9-6.1c-2.5,2.5-5,4.4-8.7,4.4c-6.2,0-10.6-5.6-10.6-13.9v-0.4c0-8.1,4.4-13.8,10.4-13.8
		c3.9,0,6.4,1.9,8.7,4.3l5.1-6.7c-3.6-3.6-7.6-5.8-13.8-5.8c-11.2,0-19.6,9.2-19.6,22v0.8c0,12.8,8.1,21.8,19.3,21.8
		C500.4,181,504.7,178.3,508.1,174.5z"/>
	<g>
		<polygon fill="#4E4540" points="536.2,157.8 529.8,164.7 538.3,180.1 548.9,180.1 		"/>
		<polygon fill="#4E4540" points="537.7,137.2 523,156.1 523,121.7 513.8,121.7 513.8,180.1 523,180.1 523,167.7 548.5,137.2 		"/>
	</g>
</g>
<g enable-background="new    ">
	<path fill="#FFFFFF" d="M215.3,288.6v-0.3c0-7.7,4.8-13,11.6-13c3.8,0,6.2,1.4,8.2,3.4l-3.2,4.1c-1.5-1.6-3.1-2.6-5.2-2.6
		c-3.4,0-5.9,3.2-5.9,8.1v0.1c0,5.1,2.6,8.2,6,8.2c2,0,3.5-0.9,5.2-2.7l3.2,3.8c-2.3,2.4-4.7,3.8-8.6,3.8
		C219.8,301.5,215.3,296.4,215.3,288.6z"/>
	<path fill="#FFFFFF" d="M237.1,288.6v-0.4c0-7.7,4.8-13,11.6-13c6.8,0,11.5,5.3,11.5,12.9v0.4c0,7.6-4.8,13-11.6,13
		C241.8,301.6,237.1,296.3,237.1,288.6z M254.7,288.5v-0.3c0-5-2.6-8.2-6.1-8.2c-3.6,0-6.1,3.1-6.1,8.2v0.3c0,5,2.6,8.2,6.1,8.2
		C252.1,296.7,254.7,293.6,254.7,288.5z"/>
	<path fill="#FFFFFF" d="M264.3,275.6h5.5l5.7,10.3l5.6-10.3h5.6v25.5h-5.2v-16.3l-6,10.5h-0.1l-6-10.5v16.2h-5.1V275.6z"/>
	<path fill="#FFFFFF" d="M291.8,275.6h8.5c5.7,0,9.3,3.3,9.3,8.7v0.1c0,5.9-4.2,8.8-9.5,8.9h-3v7.8h-5.3V275.6z M300.1,288.6
		c2.7,0,4.3-1.7,4.3-4.1v0c0-2.7-1.5-4.1-4.3-4.1h-2.9v8.2H300.1z"/>
	<path fill="#FFFFFF" d="M318.1,275.5h5l9.1,25.7h-5.5l-1.9-5.5h-8.8l-1.9,5.5H309L318.1,275.5z M323.3,290.9l-2.8-8.3l-2.8,8.3
		H323.3z"/>
	<path fill="#FFFFFF" d="M337.7,280.5h-6.4v-4.9h18.1v4.9H343v20.6h-5.2V280.5z"/>
	<path fill="#FFFFFF" d="M353.2,275.6h5.3v25.5h-5.3V275.6z"/>
	<path fill="#FFFFFF" d="M363.7,275.6h9.5c2.8,0,5.2,0.8,6.7,2.2c1.1,1.2,1.7,2.6,1.7,4.3v0.1c0,3-1.6,4.6-3.5,5.6
		c2.7,1.1,4.6,2.7,4.6,6.1v0.2c0,4.6-3.7,7-9.2,7h-9.7V275.6z M376.4,283.1c0-1.9-1.3-2.8-3.6-2.8h-3.9v5.8h3.7
		C374.9,286.1,376.4,285.1,376.4,283.1L376.4,283.1z M373.5,290.5h-4.6v6h4.7c2.4,0,3.9-1,3.9-3v0
		C377.5,291.6,376.1,290.5,373.5,290.5z"/>
	<path fill="#FFFFFF" d="M386.5,275.6h5.3v20.7h10.3v4.8h-15.6V275.6z"/>
	<path fill="#FFFFFF" d="M405.6,275.6h16.4v4.8h-11.2v5.5h9.8v4.8h-9.8v5.7h11.3v4.8h-16.6V275.6z"/>
</g>
</svg>
