<?xml version="1.0" encoding="utf-8"?>
<!-- Generator: Adobe Illustrator 20.1.0, SVG Export Plug-In . SVG Version: 6.00 Build 0)  -->
<svg version="1.1" id="Layer_1" xmlns="http://www.w3.org/2000/svg" xmlns:xlink="http://www.w3.org/1999/xlink" x="0px" y="0px"
	 viewBox="0 0 175 105.333" enable-background="new 0 0 175 105.333" xml:space="preserve">
<g>
	<g>
		<path fill="#FFFFFF" d="M168.831,62.501V24.829c0-2.991-2.447-5.438-5.438-5.438H11.607c-2.991,0-5.438,2.447-5.438,5.438v37.671
			H168.831z"/>
		<path fill="#E8E8E8" d="M163.393,20.62c2.321,0,4.21,1.889,4.21,4.21v36.442H7.397V24.829c0-2.321,1.889-4.21,4.21-4.21H163.393
			 M163.393,19.391H11.607c-2.991,0-5.438,2.447-5.438,5.438v37.671h162.662V24.829C168.831,21.838,166.384,19.391,163.393,19.391
			L163.393,19.391z"/>
	</g>
	<g>
		<path fill="#E8E8E8" d="M6.169,62.502v17.95c0,3.02,2.471,5.491,5.491,5.491h151.681c3.02,0,5.49-2.471,5.49-5.49v-17.95H6.169z"
			/>
		<path fill="#E8E8E8" d="M167.603,63.73v16.722c0,2.35-1.912,4.262-4.262,4.262H11.659c-2.35,0-4.263-1.912-4.263-4.263V63.73
			H167.603 M168.831,62.502H6.169v17.95c0,3.02,2.471,5.491,5.491,5.491h151.681c3.02,0,5.49-2.471,5.49-5.49V62.502L168.831,62.502
			z"/>
	</g>
	<g>
		<path fill="#666766" d="M59.408,68.86h2.862c1.928,0,3.144,1.118,3.144,2.948v0.025c0,1.977-1.412,2.972-3.218,3.009h-1.007v2.616
			h-1.781V68.86z M62.184,73.245c0.921,0,1.437-0.577,1.437-1.376v-0.013c0-0.896-0.516-1.388-1.462-1.388h-0.97v2.776H62.184z"/>
		<path fill="#666766" d="M67.087,73.245v-0.147c0-2.579,1.621-4.385,3.893-4.385c2.284,0,3.881,1.793,3.881,4.36v0.147
			c0,2.567-1.621,4.385-3.893,4.385C68.684,77.605,67.087,75.812,67.087,73.245z M73.019,73.208v-0.086
			c0-1.695-0.86-2.763-2.051-2.763c-1.204,0-2.051,1.056-2.051,2.751v0.086c0,1.695,0.872,2.763,2.063,2.763
			S73.019,74.903,73.019,73.208z"/>
		<path fill="#666766" d="M76.117,68.86h1.879l1.449,5.662l1.572-5.686h1.548l1.584,5.686l1.437-5.662h1.842l-2.456,8.646h-1.633
			l-1.572-5.465l-1.572,5.465h-1.621L76.117,68.86z"/>
		<path fill="#666766" d="M89.374,68.86h5.539v1.609h-3.77v1.855h3.316v1.609h-3.316v1.916h3.819v1.609h-5.588V68.86z"/>
		<path fill="#666766" d="M97.175,68.86h3.23c0.995,0,1.793,0.283,2.334,0.823c0.467,0.467,0.725,1.142,0.725,1.99v0.049
			c0,1.302-0.651,2.125-1.597,2.542l1.83,3.193h-2.039l-1.584-2.825h-1.118v2.825h-1.781V68.86z M100.27,73.061
			c0.909,0,1.4-0.516,1.4-1.29v-0.012c0-0.86-0.529-1.29-1.437-1.29h-1.277v2.592H100.27z"/>
		<path fill="#666766" d="M105.69,68.86h5.539v1.609h-3.77v1.855h3.316v1.609h-3.316v1.916h3.819v1.609h-5.588V68.86z"/>
		<path fill="#666766" d="M113.49,68.86h2.776c2.494,0,4.102,1.72,4.102,4.237v0.11c0,2.518-1.609,4.25-4.102,4.25h-2.776V68.86z
			 M115.271,70.469v5.38h0.982c1.351,0,2.272-0.946,2.272-2.653v-0.061c0-1.707-0.921-2.665-2.272-2.665H115.271z"/>
	</g>
	<g>
		<path fill="#FFFFFF" d="M49.456,29.644H31.165c-1.148,0-2.087,0.939-2.087,2.087v4.919h5.073v-0.804
			c0-0.624,0.505-1.129,1.129-1.129h10.061c0.624,0,1.129,0.505,1.129,1.129v0.804h5.073v-4.919
			C51.543,30.583,50.604,29.644,49.456,29.644z"/>
		<path fill="#FFFFFF" d="M46.47,45.429c0,0.624-0.505,1.129-1.129,1.129H35.28c-0.624,0-1.129-0.505-1.129-1.129v-0.804h-5.073
			v4.919c0,1.148,0.939,2.087,2.087,2.087h18.291c1.148,0,2.087-0.939,2.087-2.087v-4.919H46.47V45.429z"/>
		<rect x="29.078" y="38.101" fill="#FFFFFF" width="5.073" height="5.073"/>
		<rect x="46.47" y="38.101" fill="#FFFFFF" width="5.073" height="5.073"/>
	</g>
	<path fill="#FFFFFF" d="M152.831,44.899c0-0.787-0.64-1.427-1.427-1.427c-0.787,0-1.427,0.64-1.427,1.427
		c0,0.787,0.64,1.427,1.427,1.427C152.191,46.326,152.831,45.686,152.831,44.899z M151.404,45.975c-0.594,0-1.076-0.483-1.076-1.076
		c0-0.594,0.483-1.076,1.076-1.076s1.076,0.483,1.076,1.076C152.48,45.492,151.998,45.975,151.404,45.975z"/>
	<path fill="#FFFFFF" d="M151.939,44.64v-0.008c0-0.138-0.042-0.248-0.118-0.324c-0.088-0.088-0.218-0.134-0.379-0.134h-0.525v1.398
		h0.289v-0.459h0.182l0.258,0.459h0.332l-0.298-0.519C151.833,44.986,151.939,44.852,151.939,44.64z M151.648,44.648
		c0,0.126-0.08,0.21-0.228,0.21h-0.214v-0.422h0.208c0.148,0,0.234,0.07,0.234,0.21V44.648z"/>
	<path fill="#FFFFFF" d="M67.111,40.734v-0.194c0-3.376-2.215-5.828-5.226-5.828c-3.032,0-5.269,2.495-5.269,5.85v0.193
		c0,3.376,2.215,5.807,5.226,5.807C64.875,46.562,67.111,44.089,67.111,40.734z M59.047,40.691v-0.129
		c0-2.129,1.097-3.699,2.796-3.699c1.656,0,2.839,1.591,2.839,3.72v0.129c0,2.129-1.097,3.72-2.796,3.72
		C60.23,44.433,59.047,42.82,59.047,40.691z"/>
	<path fill="#FFFFFF" d="M78.68,40.778v-0.301c0-3.85-2.151-5.764-4.43-5.764c-1.634,0-2.624,0.946-3.333,2.043v-1.828h-2.43v14.646
		h2.43v-4.968c0.688,1.011,1.677,1.935,3.333,1.935C76.551,46.541,78.68,44.606,78.68,40.778z M70.873,40.734v-0.215
		c0-2.237,1.247-3.656,2.71-3.656c1.462,0,2.645,1.398,2.645,3.677v0.194c0,2.28-1.161,3.656-2.645,3.656
		C72.121,44.39,70.873,42.971,70.873,40.734z"/>
	<path fill="#FFFFFF" d="M89.21,44.799l-1.269-1.506c-0.753,0.731-1.548,1.205-2.624,1.205c-1.484,0-2.667-1.032-2.882-2.946h7.14
		c0.021-0.344,0.021-0.688,0.021-0.839c0-3.419-1.634-6-4.731-6c-2.796,0-4.86,2.452-4.86,5.871v0.172
		c0,3.57,2.28,5.807,5.204,5.807C86.909,46.562,88.178,45.896,89.21,44.799z M84.866,36.756c1.419,0,2.237,1.312,2.366,3.118h-4.817
		C82.586,37.939,83.532,36.756,84.866,36.756z"/>
	<path fill="#FFFFFF" d="M96.733,34.713c-1.548,0-2.473,0.882-3.118,1.893v-1.677h-2.43v11.398h2.43v-6.903
		c0-1.57,0.882-2.516,2.151-2.516c1.29,0,2.043,0.882,2.043,2.473v6.946h2.43v-7.634C100.238,36.261,98.926,34.713,96.733,34.713z"
		/>
	<path fill="#FFFFFF" d="M110.034,43.078v-0.021c0-1.785-1.334-2.602-3.097-3.398c-1.333-0.602-2.237-0.989-2.237-1.742v-0.043
		c0-0.624,0.538-1.118,1.441-1.118s1.849,0.43,2.71,1.011l1.032-1.785c-1.075-0.774-2.43-1.226-3.699-1.226
		c-2.129,0-3.763,1.29-3.763,3.333v0.043c0,1.871,1.419,2.645,3.118,3.376c1.355,0.581,2.237,0.946,2.237,1.764v0.021
		c0,0.71-0.581,1.247-1.591,1.247c-1.011,0-2.108-0.495-3.14-1.333l-1.14,1.742c1.312,1.097,2.882,1.591,4.237,1.591
		C108.335,46.541,110.034,45.315,110.034,43.078z"/>
	<path fill="#FFFFFF" d="M117.559,46.003v-2c-0.409,0.215-0.839,0.323-1.312,0.323c-0.774,0-1.226-0.365-1.226-1.247v-6.064h2.559
		v-2.086h-2.559v-3.075h-2.43v3.075h-1.247l0.399,2.086h0.848v6.559c0,2.215,1.269,2.925,2.946,2.925
		C116.355,46.498,117,46.304,117.559,46.003z"/>
	<path fill="#FFFFFF" d="M126.87,35.96c-0.731-0.753-1.871-1.161-3.355-1.161c-1.527,0-2.667,0.366-3.764,0.903l0.688,1.935
		c0.753-0.344,1.656-0.688,2.753-0.688c1.549,0,2.452,0.796,2.452,2.323v0.473c-0.774-0.258-1.548-0.452-2.624-0.452
		c-2.409,0-4.043,1.204-4.043,3.656v0.108c0,2.215,1.591,3.484,3.484,3.484c1.484,0,2.495-0.645,3.161-1.613v1.398h2.387V39.25
		C128.01,37.831,127.623,36.713,126.87,35.96z M125.666,42.498c0,1.29-1.075,2.237-2.473,2.215
		c-1.054-0.021-1.849-0.667-1.849-1.806v-0.043c0-1.204,0.817-1.914,2.215-1.914c0.817,0,1.549,0.172,2.108,0.409V42.498z"/>
	<path fill="#FFFFFF" d="M138.34,44.842l-1.312-1.613c-0.667,0.667-1.333,1.161-2.323,1.161c-1.656,0-2.817-1.484-2.817-3.699
		v-0.108c0-2.151,1.161-3.678,2.753-3.678c1.032,0,1.699,0.516,2.301,1.14l1.355-1.785c-0.946-0.946-2.022-1.549-3.656-1.549
		c-2.989,0-5.204,2.452-5.204,5.85v0.215c0,3.398,2.151,5.785,5.118,5.785C136.297,46.562,137.437,45.853,138.34,44.842z"/>
	<g>
		<polygon fill="#FFFFFF" points="145.778,40.41 144.072,42.244 146.36,46.326 149.178,46.326 		"/>
		<polygon fill="#FFFFFF" points="146.188,34.928 142.296,39.939 142.296,30.799 139.866,30.799 139.866,46.326 142.296,46.326 
			142.296,43.036 149.07,34.928 		"/>
	</g>
	<g>
		<path fill="#ED1944" d="M49.024,29.604H30.563c-1.159,0-2.107,0.948-2.107,2.107v4.965h5.121v-0.811c0-0.629,0.51-1.14,1.14-1.14
			h10.155c0.629,0,1.14,0.51,1.14,1.14v0.811h5.121v-4.965C51.131,30.552,50.183,29.604,49.024,29.604z"/>
		<path fill="#ED1944" d="M46.01,45.536c0,0.629-0.51,1.14-1.14,1.14H34.716c-0.629,0-1.14-0.51-1.14-1.14v-0.811h-5.121v4.965
			c0,1.159,0.948,2.107,2.107,2.107h18.462c1.159,0,2.107-0.948,2.107-2.107v-4.965H46.01V45.536z"/>
		<rect x="28.456" y="38.14" fill="#ED1944" width="5.121" height="5.121"/>
		<rect x="46.01" y="38.14" fill="#ED1944" width="5.121" height="5.121"/>
	</g>
	<path fill="#4E4540" d="M153.365,45.001c0-0.794-0.646-1.44-1.44-1.44c-0.794,0-1.44,0.646-1.44,1.44c0,0.794,0.646,1.44,1.44,1.44
		C152.719,46.442,153.365,45.795,153.365,45.001z M151.925,46.088c-0.599,0-1.087-0.487-1.087-1.087
		c0-0.599,0.487-1.087,1.087-1.087s1.087,0.487,1.087,1.087C153.011,45.6,152.524,46.088,151.925,46.088z"/>
	<path fill="#4E4540" d="M152.465,44.74v-0.008c0-0.139-0.042-0.25-0.119-0.327c-0.089-0.089-0.22-0.135-0.383-0.135h-0.53v1.411
		h0.292v-0.464h0.183l0.26,0.464h0.335l-0.301-0.524C152.358,45.089,152.465,44.954,152.465,44.74z M152.17,44.748
		c0,0.127-0.081,0.212-0.23,0.212h-0.216v-0.426h0.21c0.149,0,0.236,0.071,0.236,0.212V44.748z"/>
	<path fill="#4E4540" d="M66.845,40.798v-0.195c0-3.408-2.236-5.882-5.275-5.882c-3.061,0-5.318,2.518-5.318,5.904v0.195
		c0,3.408,2.236,5.861,5.275,5.861C64.587,46.68,66.845,44.184,66.845,40.798z M58.705,40.755v-0.13
		c0-2.149,1.107-3.734,2.822-3.734c1.671,0,2.865,1.606,2.865,3.755v0.13c0,2.149-1.107,3.755-2.822,3.755
		C59.898,44.531,58.705,42.903,58.705,40.755z"/>
	<path fill="#4E4540" d="M78.521,40.841v-0.304c0-3.886-2.171-5.818-4.472-5.818c-1.65,0-2.648,0.955-3.364,2.062v-1.845h-2.453
		v14.782h2.453v-5.014c0.695,1.02,1.693,1.953,3.364,1.953C76.372,46.659,78.521,44.705,78.521,40.841z M70.642,40.798v-0.217
		c0-2.257,1.259-3.69,2.735-3.69c1.476,0,2.67,1.411,2.67,3.712v0.195c0,2.301-1.172,3.69-2.67,3.69
		C71.901,44.488,70.642,43.055,70.642,40.798z"/>
	<path fill="#4E4540" d="M89.15,44.901l-1.281-1.52c-0.76,0.738-1.563,1.216-2.648,1.216c-1.498,0-2.692-1.042-2.909-2.974h7.207
		c0.022-0.347,0.022-0.695,0.022-0.847c0-3.451-1.65-6.056-4.775-6.056c-2.822,0-4.906,2.474-4.906,5.926v0.173
		c0,3.603,2.301,5.861,5.253,5.861C86.827,46.68,88.108,46.007,89.15,44.901z M84.765,36.782c1.433,0,2.257,1.324,2.388,3.147H82.29
		C82.464,37.976,83.419,36.782,84.765,36.782z"/>
	<path fill="#4E4540" d="M96.743,34.72c-1.563,0-2.496,0.89-3.147,1.91v-1.693h-2.453v11.505h2.453v-6.968
		c0-1.585,0.89-2.54,2.171-2.54c1.302,0,2.062,0.89,2.062,2.496v7.011h2.453v-7.706C100.281,36.283,98.957,34.72,96.743,34.72z"/>
	<path fill="#4E4540" d="M110.168,43.164v-0.022c0-1.802-1.346-2.626-3.126-3.43c-1.346-0.608-2.257-0.998-2.257-1.758v-0.044
		c0-0.63,0.543-1.129,1.454-1.129s1.867,0.434,2.735,1.02l1.042-1.802c-1.085-0.781-2.453-1.237-3.734-1.237
		c-2.149,0-3.799,1.302-3.799,3.364v0.044c0,1.888,1.433,2.67,3.147,3.408c1.367,0.586,2.257,0.955,2.257,1.78v0.022
		c0,0.716-0.586,1.259-1.606,1.259s-2.127-0.499-3.169-1.346l-1.151,1.758c1.324,1.107,2.909,1.606,4.276,1.606
		C108.454,46.659,110.168,45.421,110.168,43.164z"/>
	<path fill="#4E4540" d="M117.763,46.116v-2.019c-0.412,0.217-0.847,0.326-1.324,0.326c-0.782,0-1.237-0.369-1.237-1.259v-6.121
		h2.583v-2.106h-2.583v-3.104h-2.453v3.104h-1.259l0.403,2.106h0.856v6.62c0,2.236,1.281,2.952,2.974,2.952
		C116.548,46.615,117.199,46.42,117.763,46.116z"/>
	<path fill="#4E4540" d="M127.162,35.979c-0.738-0.76-1.888-1.172-3.386-1.172c-1.541,0-2.692,0.369-3.799,0.912l0.695,1.953
		c0.76-0.347,1.672-0.695,2.778-0.695c1.563,0,2.475,0.803,2.475,2.344v0.478c-0.782-0.261-1.563-0.456-2.648-0.456
		c-2.431,0-4.081,1.215-4.081,3.69v0.109c0,2.236,1.606,3.516,3.516,3.516c1.498,0,2.518-0.651,3.191-1.628v1.411h2.409V39.3
		C128.312,37.868,127.921,36.739,127.162,35.979z M125.946,42.578c0,1.302-1.085,2.257-2.496,2.236
		c-1.063-0.022-1.867-0.673-1.867-1.823v-0.044c0-1.215,0.825-1.932,2.236-1.932c0.825,0,1.563,0.174,2.127,0.412V42.578z"/>
	<path fill="#4E4540" d="M138.739,44.944l-1.324-1.628c-0.673,0.673-1.346,1.172-2.344,1.172c-1.672,0-2.844-1.498-2.844-3.734
		v-0.109c0-2.171,1.172-3.712,2.778-3.712c1.042,0,1.715,0.521,2.322,1.151l1.368-1.802c-0.955-0.955-2.041-1.563-3.69-1.563
		c-3.017,0-5.253,2.474-5.253,5.904v0.217c0,3.43,2.171,5.839,5.166,5.839C136.677,46.68,137.827,45.964,138.739,44.944z"/>
	<g>
		<polygon fill="#4E4540" points="146.246,40.47 144.524,42.321 146.834,46.442 149.677,46.442 		"/>
		<polygon fill="#4E4540" points="146.66,34.937 142.731,39.995 142.731,30.769 140.278,30.769 140.278,46.442 142.731,46.442 
			142.731,43.12 149.569,34.937 		"/>
	</g>
</g>
</svg>
